<?xml version="1.0" standalone="no"?>
<!DOCTYPE svg PUBLIC "-//W3C//DTD SVG 20010904//EN"
 "http://www.w3.org/TR/2001/REC-SVG-20010904/DTD/svg10.dtd">
<svg version="1.0" xmlns="http://www.w3.org/2000/svg"
 width="600" height="600" viewBox="0 0 600.000000 600.000000" >
<g transform="scale(0.100000,-0.100000)"
fill="#000000" stroke="none">
<path d="M1020 2241 c-889 -337 -842 -316 -971 -447 l-44 -45 0 -469 0 -468
25 -27 c14 -15 56 -54 94 -88 l68 -61 817 -310 c669 -254 825 -309 866 -310
44 0 82 16 305 123 326 156 333 161 359 214 21 43 21 50 21 927 0 877 0 884
-21 927 -26 53 -34 58 -359 214 -185 88 -267 123 -300 125 -39 3 -155 -38
-860 -305z m840 -976 c0 -346 -2 -395 -15 -395 -23 0 -526 381 -523 396 4 19
499 393 521 393 16 1 17 -24 17 -394z"/>
</g>
</svg>
