<svg xmlns="http://www.w3.org/2000/svg" xmlns:xlink="http://www.w3.org/1999/xlink" viewBox="0 0 91 81" fill="#fff" fill-rule="evenodd" stroke="#000" stroke-linecap="round" stroke-linejoin="round"><use xlink:href="#A" x=".5" y=".5"/><symbol id="A" overflow="visible"><path d="M89.42 40.543c.843-.814.703-2.305 0-3.12l-4.36-4.203-19.397-18.17c-.843-.814-2.1-.814-3.093 0h0c-.843.813-1.125 2.305 0 3.12l20.382 19.254c.843.813.843 2.305 0 3.12L62.15 60.475c-.844.814-.844 2.305 0 3.12h0c.843.814 2.4.678 3.092 0L84.64 45.017l4.78-4.475zm-88.84 0c-.843-.814-.703-2.305 0-3.12l4.36-4.203 19.398-18.17c.843-.814 2.108-.814 3.093 0h0c.843.813 1.124 2.305 0 3.12L7.47 37.424c-.843.813-.843 2.305 0 3.12l20.38 19.93c.843.814.843 2.305 0 3.12h0c-.843.814-2.4.678-3.093 0L4.94 45.3.58 40.543z" fill="#3999c6" stroke="none"/><path d="M66.928 0h-27.4l-14.76 40.136 17.993.136L28.694 80 67.5 26.983H48.654z" fill="#fcd116" stroke="none"/><path d="M48.654 26.983L66.928 0H52.6L37.41 33.356l17.993.136L28.694 80 67.5 26.983z" fill="#ff8c00" opacity=".3" stroke="none"/></symbol></svg>