<?xml version="1.0" standalone="no"?>
<!DOCTYPE svg PUBLIC "-//W3C//DTD SVG 20010904//EN"
 "http://www.w3.org/TR/2001/REC-SVG-20010904/DTD/svg10.dtd">
<svg version="1.0" xmlns="http://www.w3.org/2000/svg"
 width="256.000000pt" height="256.000000pt" viewBox="0 0 256.000000 256.000000"
 preserveAspectRatio="xMidYMid meet">
<metadata>
Created by potrace 1.16, written by Peter Selinger 2001-2019
</metadata>
<g transform="translate(0.000000,256.000000) scale(0.100000,-0.100000)"
fill="#000000" stroke="none">
<path d="M1804 2533 c-27 -15 -517 -457 -920 -830 -67 -62 -127 -113 -132
-113 -6 0 -111 76 -234 170 -136 103 -235 172 -254 176 -43 8 -68 -7 -168 -99
-90 -82 -107 -115 -86 -166 6 -15 99 -108 206 -205 106 -98 194 -182 194 -186
0 -4 -88 -88 -194 -186 -107 -97 -200 -190 -206 -205 -21 -51 -4 -84 86 -166
100 -91 126 -107 166 -99 25 5 379 261 454 328 11 10 26 18 33 18 7 0 68 -51
135 -112 443 -410 894 -816 924 -832 24 -12 48 -17 76 -13 37 4 488 211 593
273 27 16 48 38 62 67 21 43 21 50 21 927 0 877 0 884 -21 927 -26 53 -34 58
-359 214 -275 132 -318 144 -376 112z m114 -1544 l-3 -291 -182 139 c-99 76
-269 205 -377 287 -108 81 -196 152 -196 156 0 4 88 75 196 156 108 82 278
211 377 287 l182 139 3 -291 c1 -160 1 -422 0 -582z"/>
</g>
</svg>
