solid OpenSCAD_Model
  facet normal -0 0 1
    outer loop
      vertex 26.5 64 26
      vertex 27.5 31 26
      vertex 27.5 64 26
    endloop
  endfacet
  facet normal 0 0 1
    outer loop
      vertex 27.5 31 26
      vertex 26.5 64 26
      vertex 26.5 31 26
    endloop
  endfacet
  facet normal -0 0 1
    outer loop
      vertex 26.5 105 26
      vertex 27.5 72 26
      vertex 27.5 105 26
    endloop
  endfacet
  facet normal 0 0 1
    outer loop
      vertex 27.5 72 26
      vertex 26.5 105 26
      vertex 26.5 72 26
    endloop
  endfacet
  facet normal -0 0 1
    outer loop
      vertex 0 28.5 26
      vertex 1.68 5 26
      vertex 1.68 28.5 26
    endloop
  endfacet
  facet normal 0 0 1
    outer loop
      vertex 1.68 5 26
      vertex 0 28.5 26
      vertex 0 5 26
    endloop
  endfacet
  facet normal -0 0 1
    outer loop
      vertex 0 131 26
      vertex 1.68 107.5 26
      vertex 1.68 131 26
    endloop
  endfacet
  facet normal 0 0 1
    outer loop
      vertex 1.68 107.5 26
      vertex 0 131 26
      vertex 0 107.5 26
    endloop
  endfacet
  facet normal 1 0 0
    outer loop
      vertex 1.68 28.5 26
      vertex 1.68 28.2221 25.1573
      vertex 1.68 28.5 25.3059
    endloop
  endfacet
  facet normal 1 0 0
    outer loop
      vertex 1.68 28.5 26
      vertex 1.68 27.4645 24.5355
      vertex 1.68 28.2221 25.1573
    endloop
  endfacet
  facet normal 1 -0 0
    outer loop
      vertex 1.68 5 26
      vertex 1.68 27.4645 24.5355
      vertex 1.68 28.5 26
    endloop
  endfacet
  facet normal 1 -0 0
    outer loop
      vertex 1.68 8.66733 10.3317
      vertex 1.68 26 6
      vertex 1.68 26 21
    endloop
  endfacet
  facet normal 1 0 0
    outer loop
      vertex 1.68 5 26
      vertex 1.68 26 21
      vertex 1.68 26.0961 21.9755
    endloop
  endfacet
  facet normal 1 0 0
    outer loop
      vertex 1.68 5 26
      vertex 1.68 26.0961 21.9755
      vertex 1.68 26.3806 22.9134
    endloop
  endfacet
  facet normal 1 0 0
    outer loop
      vertex 1.68 5 26
      vertex 1.68 26.3806 22.9134
      vertex 1.68 26.8427 23.7779
    endloop
  endfacet
  facet normal 1 0 0
    outer loop
      vertex 1.68 27.4645 24.5355
      vertex 1.68 5 26
      vertex 1.68 26.8427 23.7779
    endloop
  endfacet
  facet normal 1 0 0
    outer loop
      vertex 1.68 26 6
      vertex 1.68 8.66733 10.3317
      vertex 1.68 8.7 10
    endloop
  endfacet
  facet normal 1 0 0
    outer loop
      vertex 1.68 26 21
      vertex 1.68 8.57059 10.6506
      vertex 1.68 8.66733 10.3317
    endloop
  endfacet
  facet normal 1 0 0
    outer loop
      vertex 1.68 26 21
      vertex 1.68 8.4135 10.9445
      vertex 1.68 8.57059 10.6506
    endloop
  endfacet
  facet normal 1 0 0
    outer loop
      vertex 1.68 26 21
      vertex 1.68 8.20208 11.2021
      vertex 1.68 8.4135 10.9445
    endloop
  endfacet
  facet normal 1 0 0
    outer loop
      vertex 1.68 26 21
      vertex 1.68 5 26
      vertex 1.68 7.94447 11.4135
    endloop
  endfacet
  facet normal 1 0 0
    outer loop
      vertex 1.68 26 21
      vertex 1.68 7.94447 11.4135
      vertex 1.68 8.20208 11.2021
    endloop
  endfacet
  facet normal 1 0 0
    outer loop
      vertex 1.68 7.94447 11.4135
      vertex 1.68 5 26
      vertex 1.68 7.65056 11.5706
    endloop
  endfacet
  facet normal 1 0 0
    outer loop
      vertex 1.68 7.65056 11.5706
      vertex 1.68 5 26
      vertex 1.68 7.33165 11.6673
    endloop
  endfacet
  facet normal 1 0 0
    outer loop
      vertex 1.68 7.33165 11.6673
      vertex 1.68 5 26
      vertex 1.68 7 11.7
    endloop
  endfacet
  facet normal 1 -0 0
    outer loop
      vertex 1.68 0 21
      vertex 1.68 7 11.7
      vertex 1.68 5 26
    endloop
  endfacet
  facet normal 1 0 0
    outer loop
      vertex 1.68 7 11.7
      vertex 1.68 0 21
      vertex 1.68 6.66835 11.6673
    endloop
  endfacet
  facet normal 1 0 0
    outer loop
      vertex 1.68 5.5865 10.9445
      vertex 1.68 0 11
      vertex 1.68 5.4294 10.6506
    endloop
  endfacet
  facet normal 1 0 0
    outer loop
      vertex 1.68 5.79792 11.2021
      vertex 1.68 0 11
      vertex 1.68 5.5865 10.9445
    endloop
  endfacet
  facet normal 1 0 0
    outer loop
      vertex 1.68 6.05553 11.4135
      vertex 1.68 0 11
      vertex 1.68 5.79792 11.2021
    endloop
  endfacet
  facet normal 1 0 0
    outer loop
      vertex 1.68 0 11
      vertex 1.68 6.05553 11.4135
      vertex 1.68 0 21
    endloop
  endfacet
  facet normal 1 0 0
    outer loop
      vertex 1.68 6.34944 11.5706
      vertex 1.68 0 21
      vertex 1.68 6.05553 11.4135
    endloop
  endfacet
  facet normal 1 0 0
    outer loop
      vertex 1.68 6.66835 11.6673
      vertex 1.68 0 21
      vertex 1.68 6.34944 11.5706
    endloop
  endfacet
  facet normal 1 -0 0
    outer loop
      vertex 1.68 8.66733 9.66835
      vertex 1.68 26 6
      vertex 1.68 8.7 10
    endloop
  endfacet
  facet normal 1 -0 0
    outer loop
      vertex 1.68 8.57059 9.34944
      vertex 1.68 26 6
      vertex 1.68 8.66733 9.66835
    endloop
  endfacet
  facet normal 1 -0 0
    outer loop
      vertex 1.68 8.4135 9.05553
      vertex 1.68 26 6
      vertex 1.68 8.57059 9.34944
    endloop
  endfacet
  facet normal 1 -0 0
    outer loop
      vertex 1.68 8.20208 8.79792
      vertex 1.68 26 6
      vertex 1.68 8.4135 9.05553
    endloop
  endfacet
  facet normal 1 -0 0
    outer loop
      vertex 1.68 7.94447 8.5865
      vertex 1.68 26 6
      vertex 1.68 8.20208 8.79792
    endloop
  endfacet
  facet normal 1 0 0
    outer loop
      vertex 1.68 5 6
      vertex 1.68 7.94447 8.5865
      vertex 1.68 7.65056 8.42941
    endloop
  endfacet
  facet normal 1 0 0
    outer loop
      vertex 1.68 5 6
      vertex 1.68 7.65056 8.42941
      vertex 1.68 7.33165 8.33267
    endloop
  endfacet
  facet normal 1 0 0
    outer loop
      vertex 1.68 5 6
      vertex 1.68 7.33165 8.33267
      vertex 1.68 7 8.3
    endloop
  endfacet
  facet normal 1 0 0
    outer loop
      vertex 1.68 5 6
      vertex 1.68 7 8.3
      vertex 1.68 6.66835 8.33267
    endloop
  endfacet
  facet normal 1 0 0
    outer loop
      vertex 1.68 7.94447 8.5865
      vertex 1.68 5 6
      vertex 1.68 26 6
    endloop
  endfacet
  facet normal 1 0 0
    outer loop
      vertex 1.68 6.34944 8.42941
      vertex 1.68 5 6
      vertex 1.68 6.66835 8.33267
    endloop
  endfacet
  facet normal 1 0 0
    outer loop
      vertex 1.68 6.05553 8.5865
      vertex 1.68 5 6
      vertex 1.68 6.34944 8.42941
    endloop
  endfacet
  facet normal 1 0 0
    outer loop
      vertex 1.68 5.79792 8.79792
      vertex 1.68 5 6
      vertex 1.68 6.05553 8.5865
    endloop
  endfacet
  facet normal 1 0 0
    outer loop
      vertex 1.68 4.02455 6.09607
      vertex 1.68 5.79792 8.79792
      vertex 1.68 5.5865 9.05553
    endloop
  endfacet
  facet normal 1 0 0
    outer loop
      vertex 1.68 3.08658 6.3806
      vertex 1.68 5.5865 9.05553
      vertex 1.68 5.4294 9.34944
    endloop
  endfacet
  facet normal 1 0 0
    outer loop
      vertex 1.68 2.22215 6.84265
      vertex 1.68 5.4294 9.34944
      vertex 1.68 5.33266 9.66835
    endloop
  endfacet
  facet normal 1 0 0
    outer loop
      vertex 1.68 0.842652 8.22215
      vertex 1.68 5.33266 9.66835
      vertex 1.68 5.3 10
    endloop
  endfacet
  facet normal 1 0 0
    outer loop
      vertex 1.68 5.4294 10.6506
      vertex 1.68 0 11
      vertex 1.68 5.33266 10.3317
    endloop
  endfacet
  facet normal 1 0 0
    outer loop
      vertex 1.68 0 21
      vertex 1.68 5 26
      vertex 1.68 4.02455 25.9039
    endloop
  endfacet
  facet normal 1 0 -0
    outer loop
      vertex 1.68 0.0960741 10.0245
      vertex 1.68 5.33266 10.3317
      vertex 1.68 0 11
    endloop
  endfacet
  facet normal 1 0 0
    outer loop
      vertex 1.68 0 21
      vertex 1.68 4.02455 25.9039
      vertex 1.68 3.08658 25.6194
    endloop
  endfacet
  facet normal 1 0 0
    outer loop
      vertex 1.68 5.33266 10.3317
      vertex 1.68 0.0960741 10.0245
      vertex 1.68 5.3 10
    endloop
  endfacet
  facet normal 1 0 0
    outer loop
      vertex 1.68 0 21
      vertex 1.68 3.08658 25.6194
      vertex 1.68 2.22215 25.1573
    endloop
  endfacet
  facet normal 1 0 0
    outer loop
      vertex 1.68 5.79792 8.79792
      vertex 1.68 4.02455 6.09607
      vertex 1.68 5 6
    endloop
  endfacet
  facet normal 1 0 0
    outer loop
      vertex 1.68 0 21
      vertex 1.68 2.22215 25.1573
      vertex 1.68 1.46447 24.5355
    endloop
  endfacet
  facet normal 1 0 0
    outer loop
      vertex 1.68 5.5865 9.05553
      vertex 1.68 3.08658 6.3806
      vertex 1.68 4.02455 6.09607
    endloop
  endfacet
  facet normal 1 0 0
    outer loop
      vertex 1.68 0 21
      vertex 1.68 1.46447 24.5355
      vertex 1.68 0.842652 23.7779
    endloop
  endfacet
  facet normal 1 0 0
    outer loop
      vertex 1.68 5.4294 9.34944
      vertex 1.68 2.22215 6.84265
      vertex 1.68 3.08658 6.3806
    endloop
  endfacet
  facet normal 1 0 0
    outer loop
      vertex 1.68 0 21
      vertex 1.68 0.842652 23.7779
      vertex 1.68 0.380603 22.9134
    endloop
  endfacet
  facet normal 1 0 0
    outer loop
      vertex 1.68 5.33266 9.66835
      vertex 1.68 1.46447 7.46447
      vertex 1.68 2.22215 6.84265
    endloop
  endfacet
  facet normal 1 0 0
    outer loop
      vertex 1.68 0 21
      vertex 1.68 0.380603 22.9134
      vertex 1.68 0.0960741 21.9755
    endloop
  endfacet
  facet normal 1 0 0
    outer loop
      vertex 1.68 5.33266 9.66835
      vertex 1.68 0.842652 8.22215
      vertex 1.68 1.46447 7.46447
    endloop
  endfacet
  facet normal 1 0 0
    outer loop
      vertex 1.68 5.3 10
      vertex 1.68 0.380603 9.08658
      vertex 1.68 0.842652 8.22215
    endloop
  endfacet
  facet normal 1 0 0
    outer loop
      vertex 1.68 5.3 10
      vertex 1.68 0.0960741 10.0245
      vertex 1.68 0.380603 9.08658
    endloop
  endfacet
  facet normal 1 0 0
    outer loop
      vertex 1.68 131 26
      vertex 1.68 136 21
      vertex 1.68 135.904 21.9755
    endloop
  endfacet
  facet normal 1 0 0
    outer loop
      vertex 1.68 136 21
      vertex 1.68 129.944 11.4135
      vertex 1.68 136 11
    endloop
  endfacet
  facet normal 1 0 0
    outer loop
      vertex 1.68 131 26
      vertex 1.68 135.904 21.9755
      vertex 1.68 135.619 22.9134
    endloop
  endfacet
  facet normal 1 0 -0
    outer loop
      vertex 1.68 130.413 10.9445
      vertex 1.68 136 11
      vertex 1.68 130.202 11.2021
    endloop
  endfacet
  facet normal 1 0 0
    outer loop
      vertex 1.68 131 26
      vertex 1.68 135.619 22.9134
      vertex 1.68 135.157 23.7779
    endloop
  endfacet
  facet normal 1 0 -0
    outer loop
      vertex 1.68 130.571 10.6506
      vertex 1.68 136 11
      vertex 1.68 130.413 10.9445
    endloop
  endfacet
  facet normal 1 0 0
    outer loop
      vertex 1.68 131 26
      vertex 1.68 135.157 23.7779
      vertex 1.68 134.536 24.5355
    endloop
  endfacet
  facet normal 1 0 -0
    outer loop
      vertex 1.68 130.667 10.3317
      vertex 1.68 136 11
      vertex 1.68 130.571 10.6506
    endloop
  endfacet
  facet normal 1 0 0
    outer loop
      vertex 1.68 131 26
      vertex 1.68 134.536 24.5355
      vertex 1.68 133.778 25.1573
    endloop
  endfacet
  facet normal 1 0 -0
    outer loop
      vertex 1.68 130.7 10
      vertex 1.68 135.904 10.0245
      vertex 1.68 130.667 10.3317
    endloop
  endfacet
  facet normal 1 0 0
    outer loop
      vertex 1.68 131 26
      vertex 1.68 133.778 25.1573
      vertex 1.68 132.913 25.6194
    endloop
  endfacet
  facet normal 1 0 0
    outer loop
      vertex 1.68 135.619 9.08658
      vertex 1.68 130.7 10
      vertex 1.68 135.157 8.22215
    endloop
  endfacet
  facet normal 1 0 0
    outer loop
      vertex 1.68 131 26
      vertex 1.68 132.913 25.6194
      vertex 1.68 131.975 25.9039
    endloop
  endfacet
  facet normal 1 -0 0
    outer loop
      vertex 1.68 130.667 9.66835
      vertex 1.68 135.157 8.22215
      vertex 1.68 130.7 10
    endloop
  endfacet
  facet normal 1 0 0
    outer loop
      vertex 1.68 136 21
      vertex 1.68 131 26
      vertex 1.68 129 11.7
    endloop
  endfacet
  facet normal 1 0 0
    outer loop
      vertex 1.68 134.536 7.46447
      vertex 1.68 130.667 9.66835
      vertex 1.68 133.778 6.84265
    endloop
  endfacet
  facet normal 1 0 0
    outer loop
      vertex 1.68 133.778 6.84265
      vertex 1.68 130.571 9.34944
      vertex 1.68 132.913 6.3806
    endloop
  endfacet
  facet normal 1 -0 0
    outer loop
      vertex 1.68 130.571 9.34944
      vertex 1.68 133.778 6.84265
      vertex 1.68 130.667 9.66835
    endloop
  endfacet
  facet normal 1 0 0
    outer loop
      vertex 1.68 135.157 8.22215
      vertex 1.68 130.667 9.66835
      vertex 1.68 134.536 7.46447
    endloop
  endfacet
  facet normal 1 0 0
    outer loop
      vertex 1.68 135.904 10.0245
      vertex 1.68 130.7 10
      vertex 1.68 135.619 9.08658
    endloop
  endfacet
  facet normal 1 0 0
    outer loop
      vertex 1.68 136 11
      vertex 1.68 130.667 10.3317
      vertex 1.68 135.904 10.0245
    endloop
  endfacet
  facet normal 1 0 0
    outer loop
      vertex 1.68 136 11
      vertex 1.68 129.944 11.4135
      vertex 1.68 130.202 11.2021
    endloop
  endfacet
  facet normal 1 0 0
    outer loop
      vertex 1.68 136 21
      vertex 1.68 129.651 11.5706
      vertex 1.68 129.944 11.4135
    endloop
  endfacet
  facet normal 1 0 0
    outer loop
      vertex 1.68 136 21
      vertex 1.68 129.332 11.6673
      vertex 1.68 129.651 11.5706
    endloop
  endfacet
  facet normal 1 0 0
    outer loop
      vertex 1.68 136 21
      vertex 1.68 129 11.7
      vertex 1.68 129.332 11.6673
    endloop
  endfacet
  facet normal 1 0 0
    outer loop
      vertex 1.68 131 26
      vertex 1.68 128.668 11.6673
      vertex 1.68 129 11.7
    endloop
  endfacet
  facet normal 1 0 0
    outer loop
      vertex 1.68 131 26
      vertex 1.68 128.349 11.5706
      vertex 1.68 128.668 11.6673
    endloop
  endfacet
  facet normal 1 0 0
    outer loop
      vertex 1.68 131 26
      vertex 1.68 128.056 11.4135
      vertex 1.68 128.349 11.5706
    endloop
  endfacet
  facet normal 1 -0 0
    outer loop
      vertex 1.68 110 21
      vertex 1.68 128.056 11.4135
      vertex 1.68 131 26
    endloop
  endfacet
  facet normal 1 0 0
    outer loop
      vertex 1.68 128.056 11.4135
      vertex 1.68 110 21
      vertex 1.68 127.798 11.2021
    endloop
  endfacet
  facet normal 1 0 0
    outer loop
      vertex 1.68 127.798 11.2021
      vertex 1.68 110 21
      vertex 1.68 127.587 10.9445
    endloop
  endfacet
  facet normal 1 0 0
    outer loop
      vertex 1.68 127.587 10.9445
      vertex 1.68 110 21
      vertex 1.68 127.429 10.6506
    endloop
  endfacet
  facet normal 1 0 0
    outer loop
      vertex 1.68 110 6
      vertex 1.68 127.333 10.3317
      vertex 1.68 110 21
    endloop
  endfacet
  facet normal 1 0 0
    outer loop
      vertex 1.68 127.429 10.6506
      vertex 1.68 110 21
      vertex 1.68 127.333 10.3317
    endloop
  endfacet
  facet normal 1 0 0
    outer loop
      vertex 1.68 131 26
      vertex 1.68 109.904 21.9755
      vertex 1.68 110 21
    endloop
  endfacet
  facet normal 1 0 0
    outer loop
      vertex 1.68 131 26
      vertex 1.68 109.619 22.9134
      vertex 1.68 109.904 21.9755
    endloop
  endfacet
  facet normal 1 0 0
    outer loop
      vertex 1.68 131 26
      vertex 1.68 109.157 23.7779
      vertex 1.68 109.619 22.9134
    endloop
  endfacet
  facet normal 1 0 0
    outer loop
      vertex 1.68 131 26
      vertex 1.68 108.536 24.5355
      vertex 1.68 109.157 23.7779
    endloop
  endfacet
  facet normal 1 -0 0
    outer loop
      vertex 1.68 107.5 26
      vertex 1.68 108.536 24.5355
      vertex 1.68 131 26
    endloop
  endfacet
  facet normal 1 0 0
    outer loop
      vertex 1.68 108.536 24.5355
      vertex 1.68 107.5 26
      vertex 1.68 107.778 25.1573
    endloop
  endfacet
  facet normal 1 0 0
    outer loop
      vertex 1.68 107.778 25.1573
      vertex 1.68 107.5 26
      vertex 1.68 107.5 25.3059
    endloop
  endfacet
  facet normal 1 -0 0
    outer loop
      vertex 1.68 130.413 9.05553
      vertex 1.68 132.913 6.3806
      vertex 1.68 130.571 9.34944
    endloop
  endfacet
  facet normal 1 0 0
    outer loop
      vertex 1.68 132.913 6.3806
      vertex 1.68 130.413 9.05553
      vertex 1.68 131.975 6.09607
    endloop
  endfacet
  facet normal 1 -0 0
    outer loop
      vertex 1.68 130.202 8.79792
      vertex 1.68 131.975 6.09607
      vertex 1.68 130.413 9.05553
    endloop
  endfacet
  facet normal 1 0 0
    outer loop
      vertex 1.68 131.975 6.09607
      vertex 1.68 130.202 8.79792
      vertex 1.68 131 6
    endloop
  endfacet
  facet normal 1 -0 0
    outer loop
      vertex 1.68 129.944 8.5865
      vertex 1.68 131 6
      vertex 1.68 130.202 8.79792
    endloop
  endfacet
  facet normal 1 -0 0
    outer loop
      vertex 1.68 129.651 8.42941
      vertex 1.68 131 6
      vertex 1.68 129.944 8.5865
    endloop
  endfacet
  facet normal 1 -0 0
    outer loop
      vertex 1.68 129.332 8.33267
      vertex 1.68 131 6
      vertex 1.68 129.651 8.42941
    endloop
  endfacet
  facet normal 1 -0 0
    outer loop
      vertex 1.68 129 8.3
      vertex 1.68 131 6
      vertex 1.68 129.332 8.33267
    endloop
  endfacet
  facet normal 1 0 0
    outer loop
      vertex 1.68 128.668 8.33267
      vertex 1.68 131 6
      vertex 1.68 129 8.3
    endloop
  endfacet
  facet normal 1 0 0
    outer loop
      vertex 1.68 128.349 8.42941
      vertex 1.68 131 6
      vertex 1.68 128.668 8.33267
    endloop
  endfacet
  facet normal 1 0 0
    outer loop
      vertex 1.68 128.056 8.5865
      vertex 1.68 131 6
      vertex 1.68 128.349 8.42941
    endloop
  endfacet
  facet normal 1 0 0
    outer loop
      vertex 1.68 110 6
      vertex 1.68 128.056 8.5865
      vertex 1.68 127.798 8.79792
    endloop
  endfacet
  facet normal 1 0 0
    outer loop
      vertex 1.68 127.333 10.3317
      vertex 1.68 110 6
      vertex 1.68 127.3 10
    endloop
  endfacet
  facet normal 1 0 0
    outer loop
      vertex 1.68 127.3 10
      vertex 1.68 110 6
      vertex 1.68 127.333 9.66835
    endloop
  endfacet
  facet normal 1 0 0
    outer loop
      vertex 1.68 127.333 9.66835
      vertex 1.68 110 6
      vertex 1.68 127.429 9.34944
    endloop
  endfacet
  facet normal 1 0 0
    outer loop
      vertex 1.68 127.429 9.34944
      vertex 1.68 110 6
      vertex 1.68 127.587 9.05553
    endloop
  endfacet
  facet normal 1 0 0
    outer loop
      vertex 1.68 127.587 9.05553
      vertex 1.68 110 6
      vertex 1.68 127.798 8.79792
    endloop
  endfacet
  facet normal 1 0 0
    outer loop
      vertex 1.68 128.056 8.5865
      vertex 1.68 110 6
      vertex 1.68 131 6
    endloop
  endfacet
  facet normal -0 0.0980888 0.995178
    outer loop
      vertex 0 131.975 25.9039
      vertex 1.68 131 26
      vertex 1.68 131.975 25.9039
    endloop
  endfacet
  facet normal 0 0.0980888 0.995178
    outer loop
      vertex 1.68 131 26
      vertex 0 131.975 25.9039
      vertex 0 131 26
    endloop
  endfacet
  facet normal 0 0 -1
    outer loop
      vertex 0 5 6
      vertex 1.68 26 6
      vertex 1.68 5 6
    endloop
  endfacet
  facet normal -0 0 -1
    outer loop
      vertex 1.68 26 6
      vertex 0 5 6
      vertex 0 26 6
    endloop
  endfacet
  facet normal 0 0 -1
    outer loop
      vertex 0 110 6
      vertex 1.68 131 6
      vertex 1.68 110 6
    endloop
  endfacet
  facet normal -0 0 -1
    outer loop
      vertex 1.68 131 6
      vertex 0 110 6
      vertex 0 131 6
    endloop
  endfacet
  facet normal -1 0 0
    outer loop
      vertex 0 107.5 2.5
      vertex 0 110 5
      vertex 0 109.904 4.02455
    endloop
  endfacet
  facet normal -1 0 0
    outer loop
      vertex 0 26 6
      vertex 0 8.66733 9.66835
      vertex 0 8.7 10
    endloop
  endfacet
  facet normal -1 0 0
    outer loop
      vertex 0 26 6
      vertex 0 8.57059 9.34944
      vertex 0 8.66733 9.66835
    endloop
  endfacet
  facet normal -1 0 0
    outer loop
      vertex 0 26 6
      vertex 0 8.4135 9.05553
      vertex 0 8.57059 9.34944
    endloop
  endfacet
  facet normal -1 0 0
    outer loop
      vertex 0 26 6
      vertex 0 8.20208 8.79792
      vertex 0 8.4135 9.05553
    endloop
  endfacet
  facet normal -1 0 0
    outer loop
      vertex 0 26 6
      vertex 0 7.94447 8.5865
      vertex 0 8.20208 8.79792
    endloop
  endfacet
  facet normal -1 0 0
    outer loop
      vertex 0 5 6
      vertex 0 7.94447 8.5865
      vertex 0 26 6
    endloop
  endfacet
  facet normal -1 0 0
    outer loop
      vertex 0 7.94447 8.5865
      vertex 0 5 6
      vertex 0 7.65056 8.42941
    endloop
  endfacet
  facet normal -1 0 0
    outer loop
      vertex 0 7.65056 8.42941
      vertex 0 5 6
      vertex 0 7.33165 8.33267
    endloop
  endfacet
  facet normal -1 0 0
    outer loop
      vertex 0 7.33165 8.33267
      vertex 0 5 6
      vertex 0 7 8.3
    endloop
  endfacet
  facet normal -1 -0 0
    outer loop
      vertex 0 5.5865 9.05553
      vertex 0 3.08658 6.3806
      vertex 0 5.4294 9.34944
    endloop
  endfacet
  facet normal -1 0 0
    outer loop
      vertex 0 3.08658 6.3806
      vertex 0 5.5865 9.05553
      vertex 0 4.02455 6.09607
    endloop
  endfacet
  facet normal -1 -0 0
    outer loop
      vertex 0 5.79792 8.79792
      vertex 0 4.02455 6.09607
      vertex 0 5.5865 9.05553
    endloop
  endfacet
  facet normal -1 0 0
    outer loop
      vertex 0 4.02455 6.09607
      vertex 0 5.79792 8.79792
      vertex 0 5 6
    endloop
  endfacet
  facet normal -1 -0 0
    outer loop
      vertex 0 6.05553 8.5865
      vertex 0 5 6
      vertex 0 5.79792 8.79792
    endloop
  endfacet
  facet normal -1 -0 0
    outer loop
      vertex 0 6.34944 8.42941
      vertex 0 5 6
      vertex 0 6.05553 8.5865
    endloop
  endfacet
  facet normal -1 -0 0
    outer loop
      vertex 0 6.66835 8.33267
      vertex 0 5 6
      vertex 0 6.34944 8.42941
    endloop
  endfacet
  facet normal -1 -0 0
    outer loop
      vertex 0 7 8.3
      vertex 0 5 6
      vertex 0 6.66835 8.33267
    endloop
  endfacet
  facet normal -1 0 0
    outer loop
      vertex 0 106.913 0.380603
      vertex 0 107.5 2.5
      vertex 0 107.778 0.842652
    endloop
  endfacet
  facet normal -1 0 0
    outer loop
      vertex 0 105.975 0.0960741
      vertex 0 107.5 2.5
      vertex 0 106.913 0.380603
    endloop
  endfacet
  facet normal -1 0 0
    outer loop
      vertex 0 105 0
      vertex 0 107.5 2.5
      vertex 0 105.975 0.0960741
    endloop
  endfacet
  facet normal -1 0 0
    outer loop
      vertex 0 31 0
      vertex 0 107.5 2.5
      vertex 0 105 0
    endloop
  endfacet
  facet normal -1 0 0
    outer loop
      vertex 0 28.5 2.5
      vertex 0 31 0
      vertex 0 30.0245 0.0960741
    endloop
  endfacet
  facet normal -1 0 0
    outer loop
      vertex 0 28.5 2.5
      vertex 0 30.0245 0.0960741
      vertex 0 29.0866 0.380603
    endloop
  endfacet
  facet normal -1 0 0
    outer loop
      vertex 0 31 0
      vertex 0 28.5 2.5
      vertex 0 107.5 2.5
    endloop
  endfacet
  facet normal -1 0 0
    outer loop
      vertex 0 28.2221 0.842652
      vertex 0 28.5 2.5
      vertex 0 29.0866 0.380603
    endloop
  endfacet
  facet normal -1 0 0
    outer loop
      vertex 0 27.4645 1.46447
      vertex 0 28.5 2.5
      vertex 0 28.2221 0.842652
    endloop
  endfacet
  facet normal -1 0 0
    outer loop
      vertex 0 26.8427 2.22215
      vertex 0 28.5 2.5
      vertex 0 27.4645 1.46447
    endloop
  endfacet
  facet normal -1 0 0
    outer loop
      vertex 0 26.3806 3.08658
      vertex 0 28.5 2.5
      vertex 0 26.8427 2.22215
    endloop
  endfacet
  facet normal -1 0 0
    outer loop
      vertex 0 26.0961 4.02455
      vertex 0 28.5 2.5
      vertex 0 26.3806 3.08658
    endloop
  endfacet
  facet normal -1 0 0
    outer loop
      vertex 0 28.5 2.5
      vertex 0 26.0961 4.02455
      vertex 0 26 5
    endloop
  endfacet
  facet normal -1 0 0
    outer loop
      vertex 0 28.5 2.5
      vertex 0 26 5
      vertex 0 26 6
    endloop
  endfacet
  facet normal -1 0 0
    outer loop
      vertex 0 28.5 2.5
      vertex 0 26 6
      vertex 0 28.5 26
    endloop
  endfacet
  facet normal -1 0 0
    outer loop
      vertex 0 8.66733 10.3317
      vertex 0 26 6
      vertex 0 8.7 10
    endloop
  endfacet
  facet normal -1 0 0
    outer loop
      vertex 0 8.57059 10.6506
      vertex 0 26 6
      vertex 0 8.66733 10.3317
    endloop
  endfacet
  facet normal -1 0 0
    outer loop
      vertex 0 8.4135 10.9445
      vertex 0 26 6
      vertex 0 8.57059 10.6506
    endloop
  endfacet
  facet normal -1 0 0
    outer loop
      vertex 0 26 6
      vertex 0 8.4135 10.9445
      vertex 0 28.5 26
    endloop
  endfacet
  facet normal -1 0 0
    outer loop
      vertex 0 8.20208 11.2021
      vertex 0 28.5 26
      vertex 0 8.4135 10.9445
    endloop
  endfacet
  facet normal -1 0 0
    outer loop
      vertex 0 5 26
      vertex 0 8.20208 11.2021
      vertex 0 7.94447 11.4135
    endloop
  endfacet
  facet normal -1 0 0
    outer loop
      vertex 0 5 26
      vertex 0 7.94447 11.4135
      vertex 0 7.65056 11.5706
    endloop
  endfacet
  facet normal -1 0 0
    outer loop
      vertex 0 5 26
      vertex 0 7.65056 11.5706
      vertex 0 7.33165 11.6673
    endloop
  endfacet
  facet normal -1 0 0
    outer loop
      vertex 0 5 26
      vertex 0 7.33165 11.6673
      vertex 0 7 11.7
    endloop
  endfacet
  facet normal -1 0 0
    outer loop
      vertex 0 0 21
      vertex 0 7 11.7
      vertex 0 6.66835 11.6673
    endloop
  endfacet
  facet normal -1 0 0
    outer loop
      vertex 0 0 21
      vertex 0 6.66835 11.6673
      vertex 0 6.34944 11.5706
    endloop
  endfacet
  facet normal -1 0 0
    outer loop
      vertex 0 0 21
      vertex 0 6.34944 11.5706
      vertex 0 6.05553 11.4135
    endloop
  endfacet
  facet normal -1 0 0
    outer loop
      vertex 0 8.20208 11.2021
      vertex 0 5 26
      vertex 0 28.5 26
    endloop
  endfacet
  facet normal -1 0 0
    outer loop
      vertex 0 0 11
      vertex 0 6.05553 11.4135
      vertex 0 5.79792 11.2021
    endloop
  endfacet
  facet normal -1 0 0
    outer loop
      vertex 0 0 11
      vertex 0 5.79792 11.2021
      vertex 0 5.5865 10.9445
    endloop
  endfacet
  facet normal -1 0 0
    outer loop
      vertex 0 0 11
      vertex 0 5.5865 10.9445
      vertex 0 5.4294 10.6506
    endloop
  endfacet
  facet normal -1 0 0
    outer loop
      vertex 0 0 11
      vertex 0 5.4294 10.6506
      vertex 0 5.33266 10.3317
    endloop
  endfacet
  facet normal -1 0 0
    outer loop
      vertex 0 0.0960741 10.0245
      vertex 0 5.33266 10.3317
      vertex 0 5.3 10
    endloop
  endfacet
  facet normal -1 0 0
    outer loop
      vertex 0 2.22215 6.84265
      vertex 0 5.4294 9.34944
      vertex 0 3.08658 6.3806
    endloop
  endfacet
  facet normal -1 -0 0
    outer loop
      vertex 0 5.4294 9.34944
      vertex 0 2.22215 6.84265
      vertex 0 5.33266 9.66835
    endloop
  endfacet
  facet normal -1 -0 0
    outer loop
      vertex 0 6.05553 11.4135
      vertex 0 0 11
      vertex 0 0 21
    endloop
  endfacet
  facet normal -1 0 0
    outer loop
      vertex 0 1.46447 7.46447
      vertex 0 5.33266 9.66835
      vertex 0 2.22215 6.84265
    endloop
  endfacet
  facet normal -1 0 0
    outer loop
      vertex 0 7 11.7
      vertex 0 0 21
      vertex 0 5 26
    endloop
  endfacet
  facet normal -1 0 0
    outer loop
      vertex 0 0.842652 8.22215
      vertex 0 5.33266 9.66835
      vertex 0 1.46447 7.46447
    endloop
  endfacet
  facet normal -1 0 0
    outer loop
      vertex 0 5 26
      vertex 0 0 21
      vertex 0 4.02455 25.9039
    endloop
  endfacet
  facet normal -1 -0 0
    outer loop
      vertex 0 5.33266 9.66835
      vertex 0 0.842652 8.22215
      vertex 0 5.3 10
    endloop
  endfacet
  facet normal -1 0 0
    outer loop
      vertex 0 4.02455 25.9039
      vertex 0 0 21
      vertex 0 3.08658 25.6194
    endloop
  endfacet
  facet normal -1 0 0
    outer loop
      vertex 0 0.380603 9.08658
      vertex 0 5.3 10
      vertex 0 0.842652 8.22215
    endloop
  endfacet
  facet normal -1 0 0
    outer loop
      vertex 0 3.08658 25.6194
      vertex 0 0 21
      vertex 0 2.22215 25.1573
    endloop
  endfacet
  facet normal -1 0 0
    outer loop
      vertex 0 0.0960741 10.0245
      vertex 0 5.3 10
      vertex 0 0.380603 9.08658
    endloop
  endfacet
  facet normal -1 0 0
    outer loop
      vertex 0 2.22215 25.1573
      vertex 0 0 21
      vertex 0 1.46447 24.5355
    endloop
  endfacet
  facet normal -1 -0 0
    outer loop
      vertex 0 5.33266 10.3317
      vertex 0 0.0960741 10.0245
      vertex 0 0 11
    endloop
  endfacet
  facet normal -1 0 0
    outer loop
      vertex 0 1.46447 24.5355
      vertex 0 0 21
      vertex 0 0.842652 23.7779
    endloop
  endfacet
  facet normal -1 0 0
    outer loop
      vertex 0 0.842652 23.7779
      vertex 0 0 21
      vertex 0 0.380603 22.9134
    endloop
  endfacet
  facet normal -1 0 0
    outer loop
      vertex 0 0.380603 22.9134
      vertex 0 0 21
      vertex 0 0.0960741 21.9755
    endloop
  endfacet
  facet normal -1 0 0
    outer loop
      vertex 0 130.667 10.3317
      vertex 0 136 11
      vertex 0 135.904 10.0245
    endloop
  endfacet
  facet normal -1 0 0
    outer loop
      vertex 0 129.944 11.4135
      vertex 0 136 11
      vertex 0 130.202 11.2021
    endloop
  endfacet
  facet normal -1 0 0
    outer loop
      vertex 0 130.7 10
      vertex 0 135.904 10.0245
      vertex 0 135.619 9.08658
    endloop
  endfacet
  facet normal -1 0 0
    outer loop
      vertex 0 136 11
      vertex 0 129.944 11.4135
      vertex 0 136 21
    endloop
  endfacet
  facet normal -1 0 0
    outer loop
      vertex 0 130.7 10
      vertex 0 135.619 9.08658
      vertex 0 135.157 8.22215
    endloop
  endfacet
  facet normal -1 -0 0
    outer loop
      vertex 0 136 11
      vertex 0 130.413 10.9445
      vertex 0 130.202 11.2021
    endloop
  endfacet
  facet normal -1 0 0
    outer loop
      vertex 0 130.667 9.66835
      vertex 0 135.157 8.22215
      vertex 0 134.536 7.46447
    endloop
  endfacet
  facet normal -1 0 0
    outer loop
      vertex 0 129.651 11.5706
      vertex 0 136 21
      vertex 0 129.944 11.4135
    endloop
  endfacet
  facet normal -1 0 0
    outer loop
      vertex 0 130.667 9.66835
      vertex 0 134.536 7.46447
      vertex 0 133.778 6.84265
    endloop
  endfacet
  facet normal -1 0 0
    outer loop
      vertex 0 136 11
      vertex 0 130.571 10.6506
      vertex 0 130.413 10.9445
    endloop
  endfacet
  facet normal -1 0 0
    outer loop
      vertex 0 130.571 9.34944
      vertex 0 133.778 6.84265
      vertex 0 132.913 6.3806
    endloop
  endfacet
  facet normal -1 0 0
    outer loop
      vertex 0 129.332 11.6673
      vertex 0 136 21
      vertex 0 129.651 11.5706
    endloop
  endfacet
  facet normal -1 0 0
    outer loop
      vertex 0 130.413 9.05553
      vertex 0 132.913 6.3806
      vertex 0 131.975 6.09607
    endloop
  endfacet
  facet normal -1 0 0
    outer loop
      vertex 0 136 11
      vertex 0 130.667 10.3317
      vertex 0 130.571 10.6506
    endloop
  endfacet
  facet normal -1 0 0
    outer loop
      vertex 0 130.202 8.79792
      vertex 0 131.975 6.09607
      vertex 0 131 6
    endloop
  endfacet
  facet normal -1 -0 0
    outer loop
      vertex 0 135.904 10.0245
      vertex 0 130.7 10
      vertex 0 130.667 10.3317
    endloop
  endfacet
  facet normal -1 0 0
    outer loop
      vertex 0 129 11.7
      vertex 0 136 21
      vertex 0 129.332 11.6673
    endloop
  endfacet
  facet normal -1 0 0
    outer loop
      vertex 0 135.157 8.22215
      vertex 0 130.667 9.66835
      vertex 0 130.7 10
    endloop
  endfacet
  facet normal -1 0 0
    outer loop
      vertex 0 133.778 6.84265
      vertex 0 130.571 9.34944
      vertex 0 130.667 9.66835
    endloop
  endfacet
  facet normal -1 0 0
    outer loop
      vertex 0 132.913 6.3806
      vertex 0 130.413 9.05553
      vertex 0 130.571 9.34944
    endloop
  endfacet
  facet normal -1 0 0
    outer loop
      vertex 0 131.975 6.09607
      vertex 0 130.202 8.79792
      vertex 0 130.413 9.05553
    endloop
  endfacet
  facet normal -1 0 0
    outer loop
      vertex 0 131 6
      vertex 0 129.944 8.5865
      vertex 0 130.202 8.79792
    endloop
  endfacet
  facet normal -1 0 0
    outer loop
      vertex 0 131 6
      vertex 0 129.651 8.42941
      vertex 0 129.944 8.5865
    endloop
  endfacet
  facet normal -1 0 0
    outer loop
      vertex 0 131 6
      vertex 0 129.332 8.33267
      vertex 0 129.651 8.42941
    endloop
  endfacet
  facet normal -1 0 0
    outer loop
      vertex 0 131 6
      vertex 0 129 8.3
      vertex 0 129.332 8.33267
    endloop
  endfacet
  facet normal -1 0 0
    outer loop
      vertex 0 131 6
      vertex 0 128.668 8.33267
      vertex 0 129 8.3
    endloop
  endfacet
  facet normal -1 0 0
    outer loop
      vertex 0 131 6
      vertex 0 128.349 8.42941
      vertex 0 128.668 8.33267
    endloop
  endfacet
  facet normal -1 0 0
    outer loop
      vertex 0 131 6
      vertex 0 128.056 8.5865
      vertex 0 128.349 8.42941
    endloop
  endfacet
  facet normal -1 0 0
    outer loop
      vertex 0 110 6
      vertex 0 128.056 8.5865
      vertex 0 131 6
    endloop
  endfacet
  facet normal -1 -0 0
    outer loop
      vertex 0 127.333 9.66835
      vertex 0 110 6
      vertex 0 127.3 10
    endloop
  endfacet
  facet normal -1 -0 0
    outer loop
      vertex 0 127.429 9.34944
      vertex 0 110 6
      vertex 0 127.333 9.66835
    endloop
  endfacet
  facet normal -1 -0 0
    outer loop
      vertex 0 127.587 9.05553
      vertex 0 110 6
      vertex 0 127.429 9.34944
    endloop
  endfacet
  facet normal -1 -0 0
    outer loop
      vertex 0 127.798 8.79792
      vertex 0 110 6
      vertex 0 127.587 9.05553
    endloop
  endfacet
  facet normal -1 -0 0
    outer loop
      vertex 0 128.056 8.5865
      vertex 0 110 6
      vertex 0 127.798 8.79792
    endloop
  endfacet
  facet normal -1 0 -0
    outer loop
      vertex 0 131 26
      vertex 0 136 21
      vertex 0 129 11.7
    endloop
  endfacet
  facet normal -1 0 0
    outer loop
      vertex 0 136 21
      vertex 0 131 26
      vertex 0 135.904 21.9755
    endloop
  endfacet
  facet normal -1 0 0
    outer loop
      vertex 0 135.619 22.9134
      vertex 0 131 26
      vertex 0 135.157 23.7779
    endloop
  endfacet
  facet normal -1 0 0
    outer loop
      vertex 0 135.157 23.7779
      vertex 0 131 26
      vertex 0 134.536 24.5355
    endloop
  endfacet
  facet normal -1 0 0
    outer loop
      vertex 0 134.536 24.5355
      vertex 0 131 26
      vertex 0 133.778 25.1573
    endloop
  endfacet
  facet normal -1 0 0
    outer loop
      vertex 0 133.778 25.1573
      vertex 0 131 26
      vertex 0 132.913 25.6194
    endloop
  endfacet
  facet normal -1 0 0
    outer loop
      vertex 0 132.913 25.6194
      vertex 0 131 26
      vertex 0 131.975 25.9039
    endloop
  endfacet
  facet normal -1 0 0
    outer loop
      vertex 0 135.904 21.9755
      vertex 0 131 26
      vertex 0 135.619 22.9134
    endloop
  endfacet
  facet normal -1 0 0
    outer loop
      vertex 0 128.668 11.6673
      vertex 0 131 26
      vertex 0 129 11.7
    endloop
  endfacet
  facet normal -1 0 0
    outer loop
      vertex 0 128.349 11.5706
      vertex 0 131 26
      vertex 0 128.668 11.6673
    endloop
  endfacet
  facet normal -1 0 0
    outer loop
      vertex 0 128.056 11.4135
      vertex 0 131 26
      vertex 0 128.349 11.5706
    endloop
  endfacet
  facet normal -1 0 0
    outer loop
      vertex 0 127.798 11.2021
      vertex 0 131 26
      vertex 0 128.056 11.4135
    endloop
  endfacet
  facet normal -1 0 0
    outer loop
      vertex 0 107.5 26
      vertex 0 127.798 11.2021
      vertex 0 127.587 10.9445
    endloop
  endfacet
  facet normal -1 0 0
    outer loop
      vertex 0 110 6
      vertex 0 127.587 10.9445
      vertex 0 127.429 10.6506
    endloop
  endfacet
  facet normal -1 0 0
    outer loop
      vertex 0 110 6
      vertex 0 127.429 10.6506
      vertex 0 127.333 10.3317
    endloop
  endfacet
  facet normal -1 0 0
    outer loop
      vertex 0 110 6
      vertex 0 127.333 10.3317
      vertex 0 127.3 10
    endloop
  endfacet
  facet normal -1 -0 0
    outer loop
      vertex 0 127.587 10.9445
      vertex 0 110 6
      vertex 0 107.5 26
    endloop
  endfacet
  facet normal -1 0 0
    outer loop
      vertex 0 107.5 2.5
      vertex 0 109.904 4.02455
      vertex 0 109.619 3.08658
    endloop
  endfacet
  facet normal -1 0 0
    outer loop
      vertex 0 107.5 2.5
      vertex 0 109.619 3.08658
      vertex 0 109.157 2.22215
    endloop
  endfacet
  facet normal -1 0 0
    outer loop
      vertex 0 107.5 2.5
      vertex 0 109.157 2.22215
      vertex 0 108.536 1.46447
    endloop
  endfacet
  facet normal -1 0 0
    outer loop
      vertex 0 107.5 2.5
      vertex 0 108.536 1.46447
      vertex 0 107.778 0.842652
    endloop
  endfacet
  facet normal -1 -0 0
    outer loop
      vertex 0 110 5
      vertex 0 107.5 2.5
      vertex 0 110 6
    endloop
  endfacet
  facet normal -1 0 0
    outer loop
      vertex 0 127.798 11.2021
      vertex 0 107.5 26
      vertex 0 131 26
    endloop
  endfacet
  facet normal -1 0 0
    outer loop
      vertex 0 107.5 26
      vertex 0 110 6
      vertex 0 107.5 2.5
    endloop
  endfacet
  facet normal -0 0.634226 0.773148
    outer loop
      vertex 0 134.536 24.5355
      vertex 1.68 133.778 25.1573
      vertex 1.68 134.536 24.5355
    endloop
  endfacet
  facet normal 0 0.634226 0.773148
    outer loop
      vertex 1.68 133.778 25.1573
      vertex 0 134.536 24.5355
      vertex 0 133.778 25.1573
    endloop
  endfacet
  facet normal 0 -0.773007 -0.634397
    outer loop
      vertex 0 1.46447 7.46447
      vertex 1.68 0.842652 8.22215
      vertex 0 0.842652 8.22215
    endloop
  endfacet
  facet normal 0 -0.773007 -0.634397
    outer loop
      vertex 1.68 0.842652 8.22215
      vertex 0 1.46447 7.46447
      vertex 1.68 1.46447 7.46447
    endloop
  endfacet
  facet normal 0 -0.956936 -0.290298
    outer loop
      vertex 0 0.380603 9.08658
      vertex 1.68 0.0960741 10.0245
      vertex 0 0.0960741 10.0245
    endloop
  endfacet
  facet normal 0 -0.956936 -0.290298
    outer loop
      vertex 1.68 0.0960741 10.0245
      vertex 0 0.380603 9.08658
      vertex 1.68 0.380603 9.08658
    endloop
  endfacet
  facet normal 0 -0.098044 0.995182
    outer loop
      vertex 0 5 26
      vertex 1.68 4.02455 25.9039
      vertex 1.68 5 26
    endloop
  endfacet
  facet normal 0 -0.098044 0.995182
    outer loop
      vertex 1.68 4.02455 25.9039
      vertex 0 5 26
      vertex 0 4.02455 25.9039
    endloop
  endfacet
  facet normal -0 0.290248 0.956951
    outer loop
      vertex 0 132.913 25.6194
      vertex 1.68 131.975 25.9039
      vertex 1.68 132.913 25.6194
    endloop
  endfacet
  facet normal 0 0.290248 0.956951
    outer loop
      vertex 1.68 131.975 25.9039
      vertex 0 132.913 25.6194
      vertex 0 131.975 25.9039
    endloop
  endfacet
  facet normal -0 0.471197 0.882028
    outer loop
      vertex 0 133.778 25.1573
      vertex 1.68 132.913 25.6194
      vertex 1.68 133.778 25.1573
    endloop
  endfacet
  facet normal 0 0.471197 0.882028
    outer loop
      vertex 1.68 132.913 25.6194
      vertex 0 133.778 25.1573
      vertex 0 132.913 25.6194
    endloop
  endfacet
  facet normal 0 0.773384 0.633938
    outer loop
      vertex 1.68 135.157 23.7779
      vertex 0 134.536 24.5355
      vertex 1.68 134.536 24.5355
    endloop
  endfacet
  facet normal 0 0.773384 0.633938
    outer loop
      vertex 0 134.536 24.5355
      vertex 1.68 135.157 23.7779
      vertex 0 135.157 23.7779
    endloop
  endfacet
  facet normal 0 1 -0
    outer loop
      vertex 1.68 136 11
      vertex 0 136 21
      vertex 1.68 136 21
    endloop
  endfacet
  facet normal 0 1 0
    outer loop
      vertex 0 136 21
      vertex 1.68 136 11
      vertex 0 136 11
    endloop
  endfacet
  facet normal 0 0.956803 -0.290738
    outer loop
      vertex 1.68 135.619 9.08658
      vertex 0 135.904 10.0245
      vertex 1.68 135.904 10.0245
    endloop
  endfacet
  facet normal 0 0.956803 -0.290738
    outer loop
      vertex 0 135.904 10.0245
      vertex 1.68 135.619 9.08658
      vertex 0 135.619 9.08658
    endloop
  endfacet
  facet normal 0 -0.471438 0.881899
    outer loop
      vertex 0 3.08658 25.6194
      vertex 1.68 2.22215 25.1573
      vertex 1.68 3.08658 25.6194
    endloop
  endfacet
  facet normal 0 -0.471438 0.881899
    outer loop
      vertex 1.68 2.22215 25.1573
      vertex 0 3.08658 25.6194
      vertex 0 2.22215 25.1573
    endloop
  endfacet
  facet normal 0 -0.956935 0.290303
    outer loop
      vertex 0 0.0960741 21.9755
      vertex 1.68 0.380603 22.9134
      vertex 0 0.380603 22.9134
    endloop
  endfacet
  facet normal 0 -0.956935 0.290303
    outer loop
      vertex 1.68 0.380603 22.9134
      vertex 0 0.0960741 21.9755
      vertex 1.68 0.0960741 21.9755
    endloop
  endfacet
  facet normal 0 -0.772975 0.634437
    outer loop
      vertex 0 0.842652 23.7779
      vertex 1.68 1.46447 24.5355
      vertex 0 1.46447 24.5355
    endloop
  endfacet
  facet normal 0 -0.772975 0.634437
    outer loop
      vertex 1.68 1.46447 24.5355
      vertex 0 0.842652 23.7779
      vertex 1.68 0.842652 23.7779
    endloop
  endfacet
  facet normal 0 -1 0
    outer loop
      vertex 0 0 11
      vertex 1.68 0 21
      vertex 0 0 21
    endloop
  endfacet
  facet normal 0 -1 -0
    outer loop
      vertex 1.68 0 21
      vertex 0 0 11
      vertex 1.68 0 11
    endloop
  endfacet
  facet normal 0 0.956801 0.290743
    outer loop
      vertex 1.68 135.904 21.9755
      vertex 0 135.619 22.9134
      vertex 1.68 135.619 22.9134
    endloop
  endfacet
  facet normal 0 0.956801 0.290743
    outer loop
      vertex 0 135.619 22.9134
      vertex 1.68 135.904 21.9755
      vertex 0 135.904 21.9755
    endloop
  endfacet
  facet normal 0 0.995193 0.097938
    outer loop
      vertex 1.68 136 21
      vertex 0 135.904 21.9755
      vertex 1.68 135.904 21.9755
    endloop
  endfacet
  facet normal 0 0.995193 0.097938
    outer loop
      vertex 0 135.904 21.9755
      vertex 1.68 136 21
      vertex 0 136 21
    endloop
  endfacet
  facet normal 0 0.881957 0.471329
    outer loop
      vertex 1.68 135.619 22.9134
      vertex 0 135.157 23.7779
      vertex 1.68 135.157 23.7779
    endloop
  endfacet
  facet normal 0 0.881957 0.471329
    outer loop
      vertex 0 135.157 23.7779
      vertex 1.68 135.619 22.9134
      vertex 0 135.619 22.9134
    endloop
  endfacet
  facet normal 0 0.995193 -0.097938
    outer loop
      vertex 1.68 135.904 10.0245
      vertex 0 136 11
      vertex 1.68 136 11
    endloop
  endfacet
  facet normal 0 0.995193 -0.097938
    outer loop
      vertex 0 136 11
      vertex 1.68 135.904 10.0245
      vertex 0 135.904 10.0245
    endloop
  endfacet
  facet normal 0 0.773417 -0.633898
    outer loop
      vertex 1.68 134.536 7.46447
      vertex 0 135.157 8.22215
      vertex 1.68 135.157 8.22215
    endloop
  endfacet
  facet normal 0 0.773417 -0.633898
    outer loop
      vertex 0 135.157 8.22215
      vertex 1.68 134.536 7.46447
      vertex 0 134.536 7.46447
    endloop
  endfacet
  facet normal 0 0.634238 -0.773138
    outer loop
      vertex 0 133.778 6.84265
      vertex 1.68 134.536 7.46447
      vertex 1.68 133.778 6.84265
    endloop
  endfacet
  facet normal 0 0.634238 -0.773138
    outer loop
      vertex 1.68 134.536 7.46447
      vertex 0 133.778 6.84265
      vertex 0 134.536 7.46447
    endloop
  endfacet
  facet normal 0 -0.290257 0.956949
    outer loop
      vertex 0 4.02455 25.9039
      vertex 1.68 3.08658 25.6194
      vertex 1.68 4.02455 25.9039
    endloop
  endfacet
  facet normal 0 -0.290257 0.956949
    outer loop
      vertex 1.68 3.08658 25.6194
      vertex 0 4.02455 25.9039
      vertex 0 3.08658 25.6194
    endloop
  endfacet
  facet normal 0 -0.634386 0.773016
    outer loop
      vertex 0 2.22215 25.1573
      vertex 1.68 1.46447 24.5355
      vertex 1.68 2.22215 25.1573
    endloop
  endfacet
  facet normal 0 -0.634386 0.773016
    outer loop
      vertex 1.68 1.46447 24.5355
      vertex 0 2.22215 25.1573
      vertex 0 1.46447 24.5355
    endloop
  endfacet
  facet normal 0 -0.995185 0.0980128
    outer loop
      vertex 0 0 21
      vertex 1.68 0.0960741 21.9755
      vertex 0 0.0960741 21.9755
    endloop
  endfacet
  facet normal 0 -0.995185 0.0980128
    outer loop
      vertex 1.68 0.0960741 21.9755
      vertex 0 0 21
      vertex 1.68 0 21
    endloop
  endfacet
  facet normal 0 -0.881936 0.471368
    outer loop
      vertex 0 0.380603 22.9134
      vertex 1.68 0.842652 23.7779
      vertex 0 0.842652 23.7779
    endloop
  endfacet
  facet normal 0 -0.881936 0.471368
    outer loop
      vertex 1.68 0.842652 23.7779
      vertex 0 0.380603 22.9134
      vertex 1.68 0.380603 22.9134
    endloop
  endfacet
  facet normal 0 -0.290285 -0.95694
    outer loop
      vertex 0 3.08658 6.3806
      vertex 1.68 4.02455 6.09607
      vertex 1.68 3.08658 6.3806
    endloop
  endfacet
  facet normal -0 -0.290285 -0.95694
    outer loop
      vertex 1.68 4.02455 6.09607
      vertex 0 3.08658 6.3806
      vertex 0 4.02455 6.09607
    endloop
  endfacet
  facet normal 0 -0.634398 -0.773006
    outer loop
      vertex 0 1.46447 7.46447
      vertex 1.68 2.22215 6.84265
      vertex 1.68 1.46447 7.46447
    endloop
  endfacet
  facet normal -0 -0.634398 -0.773006
    outer loop
      vertex 1.68 2.22215 6.84265
      vertex 0 1.46447 7.46447
      vertex 0 2.22215 6.84265
    endloop
  endfacet
  facet normal 0 0.881941 -0.471359
    outer loop
      vertex 1.68 135.157 8.22215
      vertex 0 135.619 9.08658
      vertex 1.68 135.619 9.08658
    endloop
  endfacet
  facet normal 0 0.881941 -0.471359
    outer loop
      vertex 0 135.619 9.08658
      vertex 1.68 135.157 8.22215
      vertex 0 135.157 8.22215
    endloop
  endfacet
  facet normal 0 0.471157 -0.882049
    outer loop
      vertex 0 132.913 6.3806
      vertex 1.68 133.778 6.84265
      vertex 1.68 132.913 6.3806
    endloop
  endfacet
  facet normal 0 0.471157 -0.882049
    outer loop
      vertex 1.68 133.778 6.84265
      vertex 0 132.913 6.3806
      vertex 0 133.778 6.84265
    endloop
  endfacet
  facet normal 0 0.290276 -0.956943
    outer loop
      vertex 0 131.975 6.09607
      vertex 1.68 132.913 6.3806
      vertex 1.68 131.975 6.09607
    endloop
  endfacet
  facet normal 0 0.290276 -0.956943
    outer loop
      vertex 1.68 132.913 6.3806
      vertex 0 131.975 6.09607
      vertex 0 132.913 6.3806
    endloop
  endfacet
  facet normal 0 0.0980585 -0.995181
    outer loop
      vertex 0 131 6
      vertex 1.68 131.975 6.09607
      vertex 1.68 131 6
    endloop
  endfacet
  facet normal 0 0.0980585 -0.995181
    outer loop
      vertex 1.68 131.975 6.09607
      vertex 0 131 6
      vertex 0 131.975 6.09607
    endloop
  endfacet
  facet normal 0 -0.0980137 -0.995185
    outer loop
      vertex 0 4.02455 6.09607
      vertex 1.68 5 6
      vertex 1.68 4.02455 6.09607
    endloop
  endfacet
  facet normal -0 -0.0980137 -0.995185
    outer loop
      vertex 1.68 5 6
      vertex 0 4.02455 6.09607
      vertex 0 5 6
    endloop
  endfacet
  facet normal 0 -0.995185 -0.0980128
    outer loop
      vertex 0 0.0960741 10.0245
      vertex 1.68 0 11
      vertex 0 0 11
    endloop
  endfacet
  facet normal 0 -0.995185 -0.0980128
    outer loop
      vertex 1.68 0 11
      vertex 0 0.0960741 10.0245
      vertex 1.68 0.0960741 10.0245
    endloop
  endfacet
  facet normal 0 -0.471399 -0.88192
    outer loop
      vertex 0 2.22215 6.84265
      vertex 1.68 3.08658 6.3806
      vertex 1.68 2.22215 6.84265
    endloop
  endfacet
  facet normal -0 -0.471399 -0.88192
    outer loop
      vertex 1.68 3.08658 6.3806
      vertex 0 2.22215 6.84265
      vertex 0 3.08658 6.3806
    endloop
  endfacet
  facet normal 0 -0.881921 -0.471398
    outer loop
      vertex 0 0.842652 8.22215
      vertex 1.68 0.380603 9.08658
      vertex 0 0.380603 9.08658
    endloop
  endfacet
  facet normal 0 -0.881921 -0.471398
    outer loop
      vertex 1.68 0.380603 9.08658
      vertex 0 0.842652 8.22215
      vertex 1.68 0.842652 8.22215
    endloop
  endfacet
  facet normal -0 0.290248 0.956951
    outer loop
      vertex 26.5 106.913 25.6194
      vertex 27.5 105.975 25.9039
      vertex 27.5 106.913 25.6194
    endloop
  endfacet
  facet normal 0 0.290248 0.956951
    outer loop
      vertex 27.5 105.975 25.9039
      vertex 26.5 106.913 25.6194
      vertex 26.5 105.975 25.9039
    endloop
  endfacet
  facet normal 0 0.0980626 -0.99518
    outer loop
      vertex 0 105 0
      vertex 27.5 105.975 0.0960741
      vertex 27.5 105 0
    endloop
  endfacet
  facet normal 0 0.0980626 -0.99518
    outer loop
      vertex 27.5 105.975 0.0960741
      vertex 0 105 0
      vertex 0 105.975 0.0960741
    endloop
  endfacet
  facet normal 0 0 -1
    outer loop
      vertex 0 31 0
      vertex 27.5 105 0
      vertex 27.5 31 0
    endloop
  endfacet
  facet normal -0 0 -1
    outer loop
      vertex 27.5 105 0
      vertex 0 31 0
      vertex 0 105 0
    endloop
  endfacet
  facet normal 0 -0.956949 -0.290257
    outer loop
      vertex 0 26.3806 3.08658
      vertex 27.5 26.0961 4.02455
      vertex 0 26.0961 4.02455
    endloop
  endfacet
  facet normal 0 -0.956949 -0.290257
    outer loop
      vertex 27.5 26.0961 4.02455
      vertex 0 26.3806 3.08658
      vertex 27.5 26.3806 3.08658
    endloop
  endfacet
  facet normal 0 -0.098039 0.995183
    outer loop
      vertex 26.5 31 26
      vertex 27.5 30.0245 25.9039
      vertex 27.5 31 26
    endloop
  endfacet
  facet normal 0 -0.098039 0.995183
    outer loop
      vertex 27.5 30.0245 25.9039
      vertex 26.5 31 26
      vertex 26.5 30.0245 25.9039
    endloop
  endfacet
  facet normal 1 0 0
    outer loop
      vertex 27.5 64 26
      vertex 27.5 31 26
      vertex 27.5 64 8
    endloop
  endfacet
  facet normal 1 0 0
    outer loop
      vertex 27.5 105 26
      vertex 27.5 110 21
      vertex 27.5 109.904 21.9755
    endloop
  endfacet
  facet normal 1 0 0
    outer loop
      vertex 27.5 110 21
      vertex 27.5 105 26
      vertex 27.5 110 5
    endloop
  endfacet
  facet normal 1 0 0
    outer loop
      vertex 27.5 105 26
      vertex 27.5 109.904 21.9755
      vertex 27.5 109.619 22.9134
    endloop
  endfacet
  facet normal 1 0 0
    outer loop
      vertex 27.5 105 0
      vertex 27.5 110 5
      vertex 27.5 105 26
    endloop
  endfacet
  facet normal 1 0 0
    outer loop
      vertex 27.5 105 26
      vertex 27.5 109.619 22.9134
      vertex 27.5 109.157 23.7779
    endloop
  endfacet
  facet normal 1 0 0
    outer loop
      vertex 27.5 110 5
      vertex 27.5 105 0
      vertex 27.5 109.904 4.02455
    endloop
  endfacet
  facet normal 1 0 0
    outer loop
      vertex 27.5 105 26
      vertex 27.5 109.157 23.7779
      vertex 27.5 108.536 24.5355
    endloop
  endfacet
  facet normal 1 0 0
    outer loop
      vertex 27.5 109.904 4.02455
      vertex 27.5 105 0
      vertex 27.5 109.619 3.08658
    endloop
  endfacet
  facet normal 1 0 0
    outer loop
      vertex 27.5 105 26
      vertex 27.5 108.536 24.5355
      vertex 27.5 107.778 25.1573
    endloop
  endfacet
  facet normal 1 0 0
    outer loop
      vertex 27.5 109.619 3.08658
      vertex 27.5 105 0
      vertex 27.5 109.157 2.22215
    endloop
  endfacet
  facet normal 1 0 0
    outer loop
      vertex 27.5 105 26
      vertex 27.5 107.778 25.1573
      vertex 27.5 106.913 25.6194
    endloop
  endfacet
  facet normal 1 0 0
    outer loop
      vertex 27.5 109.157 2.22215
      vertex 27.5 105 0
      vertex 27.5 108.536 1.46447
    endloop
  endfacet
  facet normal 1 0 0
    outer loop
      vertex 27.5 105 26
      vertex 27.5 106.913 25.6194
      vertex 27.5 105.975 25.9039
    endloop
  endfacet
  facet normal 1 0 0
    outer loop
      vertex 27.5 108.536 1.46447
      vertex 27.5 105 0
      vertex 27.5 107.778 0.842652
    endloop
  endfacet
  facet normal 1 0 0
    outer loop
      vertex 27.5 107.778 0.842652
      vertex 27.5 105 0
      vertex 27.5 106.913 0.380603
    endloop
  endfacet
  facet normal 1 0 0
    outer loop
      vertex 27.5 106.913 0.380603
      vertex 27.5 105 0
      vertex 27.5 105.975 0.0960741
    endloop
  endfacet
  facet normal 1 0 0
    outer loop
      vertex 27.5 72 8
      vertex 27.5 105 26
      vertex 27.5 72 26
    endloop
  endfacet
  facet normal 1 0 0
    outer loop
      vertex 27.5 105 26
      vertex 27.5 72 8
      vertex 27.5 105 0
    endloop
  endfacet
  facet normal 1 -0 0
    outer loop
      vertex 27.5 64 8
      vertex 27.5 105 0
      vertex 27.5 72 8
    endloop
  endfacet
  facet normal 1 0 0
    outer loop
      vertex 27.5 64 8
      vertex 27.5 31 0
      vertex 27.5 105 0
    endloop
  endfacet
  facet normal 1 0 0
    outer loop
      vertex 27.5 31 26
      vertex 27.5 31 0
      vertex 27.5 64 8
    endloop
  endfacet
  facet normal 1 0 0
    outer loop
      vertex 27.5 26 21
      vertex 27.5 31 26
      vertex 27.5 30.0245 25.9039
    endloop
  endfacet
  facet normal 1 0 0
    outer loop
      vertex 27.5 31 26
      vertex 27.5 26 21
      vertex 27.5 31 0
    endloop
  endfacet
  facet normal 1 0 0
    outer loop
      vertex 27.5 26 21
      vertex 27.5 30.0245 25.9039
      vertex 27.5 29.0866 25.6194
    endloop
  endfacet
  facet normal 1 -0 0
    outer loop
      vertex 27.5 26 5
      vertex 27.5 31 0
      vertex 27.5 26 21
    endloop
  endfacet
  facet normal 1 0 0
    outer loop
      vertex 27.5 26 21
      vertex 27.5 29.0866 25.6194
      vertex 27.5 28.2221 25.1573
    endloop
  endfacet
  facet normal 1 0 0
    outer loop
      vertex 27.5 31 0
      vertex 27.5 26 5
      vertex 27.5 30.0245 0.0960741
    endloop
  endfacet
  facet normal 1 0 0
    outer loop
      vertex 27.5 26 21
      vertex 27.5 28.2221 25.1573
      vertex 27.5 27.4645 24.5355
    endloop
  endfacet
  facet normal 1 0 0
    outer loop
      vertex 27.5 30.0245 0.0960741
      vertex 27.5 26 5
      vertex 27.5 29.0866 0.380603
    endloop
  endfacet
  facet normal 1 0 0
    outer loop
      vertex 27.5 26 21
      vertex 27.5 27.4645 24.5355
      vertex 27.5 26.8427 23.7779
    endloop
  endfacet
  facet normal 1 0 0
    outer loop
      vertex 27.5 29.0866 0.380603
      vertex 27.5 26 5
      vertex 27.5 28.2221 0.842652
    endloop
  endfacet
  facet normal 1 0 0
    outer loop
      vertex 27.5 26 21
      vertex 27.5 26.8427 23.7779
      vertex 27.5 26.3806 22.9134
    endloop
  endfacet
  facet normal 1 0 0
    outer loop
      vertex 27.5 28.2221 0.842652
      vertex 27.5 26 5
      vertex 27.5 27.4645 1.46447
    endloop
  endfacet
  facet normal 1 0 0
    outer loop
      vertex 27.5 26 21
      vertex 27.5 26.3806 22.9134
      vertex 27.5 26.0961 21.9755
    endloop
  endfacet
  facet normal 1 0 0
    outer loop
      vertex 27.5 27.4645 1.46447
      vertex 27.5 26 5
      vertex 27.5 26.8427 2.22215
    endloop
  endfacet
  facet normal 1 0 0
    outer loop
      vertex 27.5 26.8427 2.22215
      vertex 27.5 26 5
      vertex 27.5 26.3806 3.08658
    endloop
  endfacet
  facet normal 1 0 0
    outer loop
      vertex 27.5 26.3806 3.08658
      vertex 27.5 26 5
      vertex 27.5 26.0961 4.02455
    endloop
  endfacet
  facet normal -0 0.0980888 0.995178
    outer loop
      vertex 26.5 105.975 25.9039
      vertex 27.5 105 26
      vertex 27.5 105.975 25.9039
    endloop
  endfacet
  facet normal 0 0.0980888 0.995178
    outer loop
      vertex 27.5 105 26
      vertex 26.5 105.975 25.9039
      vertex 26.5 105 26
    endloop
  endfacet
  facet normal 0 0.995193 0.097938
    outer loop
      vertex 27.5 110 21
      vertex 1.68 109.904 21.9755
      vertex 27.5 109.904 21.9755
    endloop
  endfacet
  facet normal 0 0.995193 0.097938
    outer loop
      vertex 1.68 109.904 21.9755
      vertex 27.5 110 21
      vertex 1.68 110 21
    endloop
  endfacet
  facet normal -0 0.634226 0.773148
    outer loop
      vertex 1.68 108.536 24.5355
      vertex 27.5 107.778 25.1573
      vertex 27.5 108.536 24.5355
    endloop
  endfacet
  facet normal 0 0.634226 0.773148
    outer loop
      vertex 27.5 107.778 25.1573
      vertex 1.68 108.536 24.5355
      vertex 1.68 107.778 25.1573
    endloop
  endfacet
  facet normal 0 1 0
    outer loop
      vertex 27.5 110 21
      vertex 1.68 110 6
      vertex 1.68 110 21
    endloop
  endfacet
  facet normal 0 1 -0
    outer loop
      vertex 27.5 110 5
      vertex 1.68 110 6
      vertex 27.5 110 21
    endloop
  endfacet
  facet normal 0 1 0
    outer loop
      vertex 0 110 5
      vertex 1.68 110 6
      vertex 27.5 110 5
    endloop
  endfacet
  facet normal 0 1 0
    outer loop
      vertex 1.68 110 6
      vertex 0 110 5
      vertex 0 110 6
    endloop
  endfacet
  facet normal 0 0.471156 -0.88205
    outer loop
      vertex 0 106.913 0.380603
      vertex 27.5 107.778 0.842652
      vertex 27.5 106.913 0.380603
    endloop
  endfacet
  facet normal 0 0.471156 -0.88205
    outer loop
      vertex 27.5 107.778 0.842652
      vertex 0 106.913 0.380603
      vertex 0 107.778 0.842652
    endloop
  endfacet
  facet normal 0 -1 0
    outer loop
      vertex 0 26 6
      vertex 0 26 5
      vertex 1.68 26 6
    endloop
  endfacet
  facet normal 0 -1 0
    outer loop
      vertex 1.68 26 6
      vertex 27.5 26 21
      vertex 1.68 26 21
    endloop
  endfacet
  facet normal 0 -1 0
    outer loop
      vertex 27.5 26 5
      vertex 1.68 26 6
      vertex 0 26 5
    endloop
  endfacet
  facet normal 0 -1 0
    outer loop
      vertex 1.68 26 6
      vertex 27.5 26 5
      vertex 27.5 26 21
    endloop
  endfacet
  facet normal 0 -0.471368 -0.881936
    outer loop
      vertex 0 28.2221 0.842652
      vertex 27.5 29.0866 0.380603
      vertex 27.5 28.2221 0.842652
    endloop
  endfacet
  facet normal -0 -0.471368 -0.881936
    outer loop
      vertex 27.5 29.0866 0.380603
      vertex 0 28.2221 0.842652
      vertex 0 29.0866 0.380603
    endloop
  endfacet
  facet normal 0 -0.471345 0.881949
    outer loop
      vertex 26.5 28.5 25.3059
      vertex 27.5 29.0866 25.6194
      vertex 26.5 29.0866 25.6194
    endloop
  endfacet
  facet normal 4.8059e-05 -0.471409 0.881915
    outer loop
      vertex 27.5 29.0866 25.6194
      vertex 26.5 28.5 25.3059
      vertex 27.5 28.2221 25.1573
    endloop
  endfacet
  facet normal 0 -0.471543 0.881843
    outer loop
      vertex 1.68 28.2221 25.1573
      vertex 26.5 28.5 25.3059
      vertex 1.68 28.5 25.3059
    endloop
  endfacet
  facet normal 0 -0.471543 0.881843
    outer loop
      vertex 26.5 28.5 25.3059
      vertex 1.68 28.2221 25.1573
      vertex 27.5 28.2221 25.1573
    endloop
  endfacet
  facet normal 0 -0.290276 0.956943
    outer loop
      vertex 26.5 30.0245 25.9039
      vertex 27.5 29.0866 25.6194
      vertex 27.5 30.0245 25.9039
    endloop
  endfacet
  facet normal 0 -0.290276 0.956943
    outer loop
      vertex 27.5 29.0866 25.6194
      vertex 26.5 30.0245 25.9039
      vertex 26.5 29.0866 25.6194
    endloop
  endfacet
  facet normal 7.66804e-05 0.471197 0.882028
    outer loop
      vertex 27.5 107.778 25.1573
      vertex 26.5 107.5 25.3059
      vertex 27.5 106.913 25.6194
    endloop
  endfacet
  facet normal -0 0.471411 0.881913
    outer loop
      vertex 1.68 107.778 25.1573
      vertex 26.5 107.5 25.3059
      vertex 27.5 107.778 25.1573
    endloop
  endfacet
  facet normal 0 0.471411 0.881913
    outer loop
      vertex 26.5 107.5 25.3059
      vertex 1.68 107.778 25.1573
      vertex 1.68 107.5 25.3059
    endloop
  endfacet
  facet normal 0 0.471095 0.882082
    outer loop
      vertex 27.5 106.913 25.6194
      vertex 26.5 107.5 25.3059
      vertex 26.5 106.913 25.6194
    endloop
  endfacet
  facet normal 0 0.634237 -0.773139
    outer loop
      vertex 0 107.778 0.842652
      vertex 27.5 108.536 1.46447
      vertex 27.5 107.778 0.842652
    endloop
  endfacet
  facet normal 0 0.634237 -0.773139
    outer loop
      vertex 27.5 108.536 1.46447
      vertex 0 107.778 0.842652
      vertex 0 108.536 1.46447
    endloop
  endfacet
  facet normal 0 0.290275 -0.956943
    outer loop
      vertex 0 105.975 0.0960741
      vertex 27.5 106.913 0.380603
      vertex 27.5 105.975 0.0960741
    endloop
  endfacet
  facet normal 0 0.290275 -0.956943
    outer loop
      vertex 27.5 106.913 0.380603
      vertex 0 105.975 0.0960741
      vertex 0 106.913 0.380603
    endloop
  endfacet
  facet normal 0 -0.0980128 -0.995185
    outer loop
      vertex 0 30.0245 0.0960741
      vertex 27.5 31 0
      vertex 27.5 30.0245 0.0960741
    endloop
  endfacet
  facet normal -0 -0.0980128 -0.995185
    outer loop
      vertex 27.5 31 0
      vertex 0 30.0245 0.0960741
      vertex 0 31 0
    endloop
  endfacet
  facet normal 0 -0.995183 0.098039
    outer loop
      vertex 1.68 26 21
      vertex 27.5 26.0961 21.9755
      vertex 1.68 26.0961 21.9755
    endloop
  endfacet
  facet normal 0 -0.995183 0.098039
    outer loop
      vertex 27.5 26.0961 21.9755
      vertex 1.68 26 21
      vertex 27.5 26 21
    endloop
  endfacet
  facet normal 0 -0.772984 0.634426
    outer loop
      vertex 1.68 26.8427 23.7779
      vertex 27.5 27.4645 24.5355
      vertex 1.68 27.4645 24.5355
    endloop
  endfacet
  facet normal 0 -0.772984 0.634426
    outer loop
      vertex 27.5 27.4645 24.5355
      vertex 1.68 26.8427 23.7779
      vertex 27.5 26.8427 23.7779
    endloop
  endfacet
  facet normal 0 -0.995182 -0.098044
    outer loop
      vertex 0 26.0961 4.02455
      vertex 27.5 26 5
      vertex 0 26 5
    endloop
  endfacet
  facet normal 0 -0.995182 -0.098044
    outer loop
      vertex 27.5 26 5
      vertex 0 26.0961 4.02455
      vertex 27.5 26.0961 4.02455
    endloop
  endfacet
  facet normal 0 -0.773016 -0.634386
    outer loop
      vertex 0 27.4645 1.46447
      vertex 27.5 26.8427 2.22215
      vertex 0 26.8427 2.22215
    endloop
  endfacet
  facet normal 0 -0.773016 -0.634386
    outer loop
      vertex 27.5 26.8427 2.22215
      vertex 0 27.4645 1.46447
      vertex 27.5 27.4645 1.46447
    endloop
  endfacet
  facet normal 0 -0.634437 -0.772975
    outer loop
      vertex 0 27.4645 1.46447
      vertex 27.5 28.2221 0.842652
      vertex 27.5 27.4645 1.46447
    endloop
  endfacet
  facet normal -0 -0.634437 -0.772975
    outer loop
      vertex 27.5 28.2221 0.842652
      vertex 0 27.4645 1.46447
      vertex 0 28.2221 0.842652
    endloop
  endfacet
  facet normal 0 -0.634426 0.772984
    outer loop
      vertex 1.68 28.2221 25.1573
      vertex 27.5 27.4645 24.5355
      vertex 27.5 28.2221 25.1573
    endloop
  endfacet
  facet normal 0 -0.634426 0.772984
    outer loop
      vertex 27.5 27.4645 24.5355
      vertex 1.68 28.2221 25.1573
      vertex 1.68 27.4645 24.5355
    endloop
  endfacet
  facet normal 0 0.773384 0.633938
    outer loop
      vertex 27.5 109.157 23.7779
      vertex 1.68 108.536 24.5355
      vertex 27.5 108.536 24.5355
    endloop
  endfacet
  facet normal 0 0.773384 0.633938
    outer loop
      vertex 1.68 108.536 24.5355
      vertex 27.5 109.157 23.7779
      vertex 1.68 109.157 23.7779
    endloop
  endfacet
  facet normal 0 0.956807 -0.290724
    outer loop
      vertex 27.5 109.619 3.08658
      vertex 0 109.904 4.02455
      vertex 27.5 109.904 4.02455
    endloop
  endfacet
  facet normal 0 0.956807 -0.290724
    outer loop
      vertex 0 109.904 4.02455
      vertex 27.5 109.619 3.08658
      vertex 0 109.619 3.08658
    endloop
  endfacet
  facet normal 0 0.881941 -0.471359
    outer loop
      vertex 27.5 109.157 2.22215
      vertex 0 109.619 3.08658
      vertex 27.5 109.619 3.08658
    endloop
  endfacet
  facet normal 0 0.881941 -0.471359
    outer loop
      vertex 0 109.619 3.08658
      vertex 27.5 109.157 2.22215
      vertex 0 109.157 2.22215
    endloop
  endfacet
  facet normal 0 0.773417 -0.633898
    outer loop
      vertex 27.5 108.536 1.46447
      vertex 0 109.157 2.22215
      vertex 27.5 109.157 2.22215
    endloop
  endfacet
  facet normal 0 0.773417 -0.633898
    outer loop
      vertex 0 109.157 2.22215
      vertex 27.5 108.536 1.46447
      vertex 0 108.536 1.46447
    endloop
  endfacet
  facet normal 0 0.995192 -0.0979429
    outer loop
      vertex 27.5 109.904 4.02455
      vertex 0 110 5
      vertex 27.5 110 5
    endloop
  endfacet
  facet normal 0 0.995192 -0.0979429
    outer loop
      vertex 0 110 5
      vertex 27.5 109.904 4.02455
      vertex 0 109.904 4.02455
    endloop
  endfacet
  facet normal 0 -0.881915 0.471409
    outer loop
      vertex 1.68 26.3806 22.9134
      vertex 27.5 26.8427 23.7779
      vertex 1.68 26.8427 23.7779
    endloop
  endfacet
  facet normal 0 -0.881915 0.471409
    outer loop
      vertex 27.5 26.8427 23.7779
      vertex 1.68 26.3806 22.9134
      vertex 27.5 26.3806 22.9134
    endloop
  endfacet
  facet normal 0 -0.956943 0.290276
    outer loop
      vertex 1.68 26.0961 21.9755
      vertex 27.5 26.3806 22.9134
      vertex 1.68 26.3806 22.9134
    endloop
  endfacet
  facet normal 0 -0.956943 0.290276
    outer loop
      vertex 27.5 26.3806 22.9134
      vertex 1.68 26.0961 21.9755
      vertex 27.5 26.0961 21.9755
    endloop
  endfacet
  facet normal 0 -0.290303 -0.956935
    outer loop
      vertex 0 29.0866 0.380603
      vertex 27.5 30.0245 0.0960741
      vertex 27.5 29.0866 0.380603
    endloop
  endfacet
  facet normal -0 -0.290303 -0.956935
    outer loop
      vertex 27.5 30.0245 0.0960741
      vertex 0 29.0866 0.380603
      vertex 0 30.0245 0.0960741
    endloop
  endfacet
  facet normal 0 -0.881899 -0.471438
    outer loop
      vertex 0 26.8427 2.22215
      vertex 27.5 26.3806 3.08658
      vertex 0 26.3806 3.08658
    endloop
  endfacet
  facet normal 0 -0.881899 -0.471438
    outer loop
      vertex 27.5 26.3806 3.08658
      vertex 0 26.8427 2.22215
      vertex 27.5 26.8427 2.22215
    endloop
  endfacet
  facet normal 0 0.881957 0.471329
    outer loop
      vertex 27.5 109.619 22.9134
      vertex 1.68 109.157 23.7779
      vertex 27.5 109.157 23.7779
    endloop
  endfacet
  facet normal 0 0.881957 0.471329
    outer loop
      vertex 1.68 109.157 23.7779
      vertex 27.5 109.619 22.9134
      vertex 1.68 109.619 22.9134
    endloop
  endfacet
  facet normal 0 0.956801 0.290743
    outer loop
      vertex 27.5 109.904 21.9755
      vertex 1.68 109.619 22.9134
      vertex 27.5 109.619 22.9134
    endloop
  endfacet
  facet normal 0 0.956801 0.290743
    outer loop
      vertex 1.68 109.619 22.9134
      vertex 27.5 109.904 21.9755
      vertex 1.68 109.904 21.9755
    endloop
  endfacet
  facet normal -1 0 0
    outer loop
      vertex 26.5 105 26
      vertex 26.5 107.5 25.3059
      vertex 26.5 107.5 2.5
    endloop
  endfacet
  facet normal -1 -0 -0
    outer loop
      vertex 26.5 105.975 25.9039
      vertex 26.5 107.5 25.3059
      vertex 26.5 105 26
    endloop
  endfacet
  facet normal -1 0 0
    outer loop
      vertex 26.5 107.5 25.3059
      vertex 26.5 105.975 25.9039
      vertex 26.5 106.913 25.6194
    endloop
  endfacet
  facet normal -1 0 0
    outer loop
      vertex 26.5 107.5 2.5
      vertex 26.5 72 8
      vertex 26.5 105 26
    endloop
  endfacet
  facet normal -1 0 0
    outer loop
      vertex 26.5 107.5 2.5
      vertex 26.5 64 8
      vertex 26.5 72 8
    endloop
  endfacet
  facet normal -1 0 0
    outer loop
      vertex 26.5 64 8
      vertex 26.5 31 26
      vertex 26.5 64 26
    endloop
  endfacet
  facet normal -1 0 0
    outer loop
      vertex 26.5 28.5 2.5
      vertex 26.5 31 26
      vertex 26.5 64 8
    endloop
  endfacet
  facet normal -1 0 0
    outer loop
      vertex 26.5 28.5 25.3059
      vertex 26.5 31 26
      vertex 26.5 28.5 2.5
    endloop
  endfacet
  facet normal -1 0 0
    outer loop
      vertex 26.5 28.5 2.5
      vertex 26.5 64 8
      vertex 26.5 107.5 2.5
    endloop
  endfacet
  facet normal -1 0 0
    outer loop
      vertex 26.5 31 26
      vertex 26.5 28.5 25.3059
      vertex 26.5 30.0245 25.9039
    endloop
  endfacet
  facet normal -1 0 0
    outer loop
      vertex 26.5 30.0245 25.9039
      vertex 26.5 28.5 25.3059
      vertex 26.5 29.0866 25.6194
    endloop
  endfacet
  facet normal -1 -0 0
    outer loop
      vertex 26.5 105 26
      vertex 26.5 72 8
      vertex 26.5 72 26
    endloop
  endfacet
  facet normal -0 0 1
    outer loop
      vertex 0 107.5 2.5
      vertex 26.5 28.5 2.5
      vertex 26.5 107.5 2.5
    endloop
  endfacet
  facet normal 0 0 1
    outer loop
      vertex 26.5 28.5 2.5
      vertex 0 107.5 2.5
      vertex 0 28.5 2.5
    endloop
  endfacet
  facet normal 0 -1 0
    outer loop
      vertex 0 107.5 26
      vertex 1.68 107.5 25.3059
      vertex 1.68 107.5 26
    endloop
  endfacet
  facet normal 0 -1 0
    outer loop
      vertex 0 107.5 2.5
      vertex 1.68 107.5 25.3059
      vertex 0 107.5 26
    endloop
  endfacet
  facet normal 0 -1 0
    outer loop
      vertex 26.5 107.5 2.5
      vertex 1.68 107.5 25.3059
      vertex 0 107.5 2.5
    endloop
  endfacet
  facet normal 0 -1 0
    outer loop
      vertex 1.68 107.5 25.3059
      vertex 26.5 107.5 2.5
      vertex 26.5 107.5 25.3059
    endloop
  endfacet
  facet normal 0 1 0
    outer loop
      vertex 26.5 28.5 25.3059
      vertex 26.5 28.5 2.5
      vertex 1.68 28.5 25.3059
    endloop
  endfacet
  facet normal 0 1 -0
    outer loop
      vertex 1.68 28.5 25.3059
      vertex 0 28.5 26
      vertex 1.68 28.5 26
    endloop
  endfacet
  facet normal 0 1 0
    outer loop
      vertex 0 28.5 2.5
      vertex 1.68 28.5 25.3059
      vertex 26.5 28.5 2.5
    endloop
  endfacet
  facet normal 0 1 0
    outer loop
      vertex 1.68 28.5 25.3059
      vertex 0 28.5 2.5
      vertex 0 28.5 26
    endloop
  endfacet
  facet normal -0 0 1
    outer loop
      vertex 26.5 72 8
      vertex 27.5 64 8
      vertex 27.5 72 8
    endloop
  endfacet
  facet normal 0 0 1
    outer loop
      vertex 27.5 64 8
      vertex 26.5 72 8
      vertex 26.5 64 8
    endloop
  endfacet
  facet normal 0 1 -0
    outer loop
      vertex 27.5 64 8
      vertex 26.5 64 26
      vertex 27.5 64 26
    endloop
  endfacet
  facet normal 0 1 0
    outer loop
      vertex 26.5 64 26
      vertex 27.5 64 8
      vertex 26.5 64 8
    endloop
  endfacet
  facet normal 0 -1 0
    outer loop
      vertex 26.5 72 8
      vertex 27.5 72 26
      vertex 26.5 72 26
    endloop
  endfacet
  facet normal 0 -1 -0
    outer loop
      vertex 27.5 72 26
      vertex 26.5 72 8
      vertex 27.5 72 8
    endloop
  endfacet
  facet normal 0 -0.472515 0.881323
    outer loop
      vertex 0 129.944 8.5865
      vertex 1.68 129.651 8.42941
      vertex 1.68 129.944 8.5865
    endloop
  endfacet
  facet normal 0 -0.472515 0.881323
    outer loop
      vertex 1.68 129.651 8.42941
      vertex 0 129.944 8.5865
      vertex 0 129.651 8.42941
    endloop
  endfacet
  facet normal 0 -0.0980197 -0.995184
    outer loop
      vertex 0 129 11.7
      vertex 1.68 129.332 11.6673
      vertex 1.68 129 11.7
    endloop
  endfacet
  facet normal -0 -0.0980197 -0.995184
    outer loop
      vertex 1.68 129.332 11.6673
      vertex 0 129 11.7
      vertex 0 129.332 11.6673
    endloop
  endfacet
  facet normal 0 -0.633829 0.773474
    outer loop
      vertex 0 130.202 8.79792
      vertex 1.68 129.944 8.5865
      vertex 1.68 130.202 8.79792
    endloop
  endfacet
  facet normal 0 -0.633829 0.773474
    outer loop
      vertex 1.68 129.944 8.5865
      vertex 0 130.202 8.79792
      vertex 0 129.944 8.5865
    endloop
  endfacet
  facet normal 0 -0.957556 0.288249
    outer loop
      vertex 0 130.571 9.34944
      vertex 1.68 130.667 9.66835
      vertex 0 130.667 9.66835
    endloop
  endfacet
  facet normal 0 -0.957556 0.288249
    outer loop
      vertex 1.68 130.667 9.66835
      vertex 0 130.571 9.34944
      vertex 1.68 130.571 9.34944
    endloop
  endfacet
  facet normal 0 -0.880788 -0.47351
    outer loop
      vertex 0 130.571 10.6506
      vertex 1.68 130.413 10.9445
      vertex 0 130.413 10.9445
    endloop
  endfacet
  facet normal 0 -0.880788 -0.47351
    outer loop
      vertex 1.68 130.413 10.9445
      vertex 0 130.571 10.6506
      vertex 1.68 130.571 10.6506
    endloop
  endfacet
  facet normal 0 -0.290099 -0.956997
    outer loop
      vertex 0 129.332 11.6673
      vertex 1.68 129.651 11.5706
      vertex 1.68 129.332 11.6673
    endloop
  endfacet
  facet normal -0 -0.290099 -0.956997
    outer loop
      vertex 1.68 129.651 11.5706
      vertex 0 129.332 11.6673
      vertex 0 129.651 11.5706
    endloop
  endfacet
  facet normal -0 0.0979306 0.995193
    outer loop
      vertex 0 129 8.3
      vertex 1.68 128.668 8.33267
      vertex 1.68 129 8.3
    endloop
  endfacet
  facet normal 0 0.0979306 0.995193
    outer loop
      vertex 1.68 128.668 8.33267
      vertex 0 129 8.3
      vertex 0 128.668 8.33267
    endloop
  endfacet
  facet normal 0 -0.773621 0.633648
    outer loop
      vertex 0 130.202 8.79792
      vertex 1.68 130.413 9.05553
      vertex 0 130.413 9.05553
    endloop
  endfacet
  facet normal 0 -0.773621 0.633648
    outer loop
      vertex 1.68 130.413 9.05553
      vertex 0 130.202 8.79792
      vertex 1.68 130.202 8.79792
    endloop
  endfacet
  facet normal 0 -0.995088 -0.0989988
    outer loop
      vertex 0 130.7 10
      vertex 1.68 130.667 10.3317
      vertex 0 130.667 10.3317
    endloop
  endfacet
  facet normal 0 -0.995088 -0.0989988
    outer loop
      vertex 1.68 130.667 10.3317
      vertex 0 130.7 10
      vertex 1.68 130.7 10
    endloop
  endfacet
  facet normal 0 -0.880795 0.473497
    outer loop
      vertex 0 130.413 9.05553
      vertex 1.68 130.571 9.34944
      vertex 0 130.571 9.34944
    endloop
  endfacet
  facet normal 0 -0.880795 0.473497
    outer loop
      vertex 1.68 130.571 9.34944
      vertex 0 130.413 9.05553
      vertex 1.68 130.413 9.05553
    endloop
  endfacet
  facet normal 0 0.0980197 -0.995184
    outer loop
      vertex 0 128.668 11.6673
      vertex 1.68 129 11.7
      vertex 1.68 128.668 11.6673
    endloop
  endfacet
  facet normal 0 0.0980197 -0.995184
    outer loop
      vertex 1.68 129 11.7
      vertex 0 128.668 11.6673
      vertex 0 129 11.7
    endloop
  endfacet
  facet normal 0 -0.472539 -0.88131
    outer loop
      vertex 0 129.651 11.5706
      vertex 1.68 129.944 11.4135
      vertex 1.68 129.651 11.5706
    endloop
  endfacet
  facet normal -0 -0.472539 -0.88131
    outer loop
      vertex 1.68 129.944 11.4135
      vertex 0 129.651 11.5706
      vertex 0 129.944 11.4135
    endloop
  endfacet
  facet normal 0 -0.773609 -0.633663
    outer loop
      vertex 0 130.413 10.9445
      vertex 1.68 130.202 11.2021
      vertex 0 130.202 11.2021
    endloop
  endfacet
  facet normal 0 -0.773609 -0.633663
    outer loop
      vertex 1.68 130.202 11.2021
      vertex 0 130.413 10.9445
      vertex 1.68 130.413 10.9445
    endloop
  endfacet
  facet normal 0 -0.957553 -0.288257
    outer loop
      vertex 0 130.667 10.3317
      vertex 1.68 130.571 10.6506
      vertex 0 130.571 10.6506
    endloop
  endfacet
  facet normal 0 -0.957553 -0.288257
    outer loop
      vertex 1.68 130.571 10.6506
      vertex 0 130.667 10.3317
      vertex 1.68 130.667 10.3317
    endloop
  endfacet
  facet normal 0 -0.633793 -0.773503
    outer loop
      vertex 0 129.944 11.4135
      vertex 1.68 130.202 11.2021
      vertex 1.68 129.944 11.4135
    endloop
  endfacet
  facet normal -0 -0.633793 -0.773503
    outer loop
      vertex 1.68 130.202 11.2021
      vertex 0 129.944 11.4135
      vertex 0 130.202 11.2021
    endloop
  endfacet
  facet normal 0 -0.0979306 0.995193
    outer loop
      vertex 0 129.332 8.33267
      vertex 1.68 129 8.3
      vertex 1.68 129.332 8.33267
    endloop
  endfacet
  facet normal 0 -0.0979306 0.995193
    outer loop
      vertex 1.68 129 8.3
      vertex 0 129.332 8.33267
      vertex 0 129 8.3
    endloop
  endfacet
  facet normal 0 0.880788 -0.47351
    outer loop
      vertex 1.68 127.429 10.6506
      vertex 0 127.587 10.9445
      vertex 1.68 127.587 10.9445
    endloop
  endfacet
  facet normal 0 0.880788 -0.47351
    outer loop
      vertex 0 127.587 10.9445
      vertex 1.68 127.429 10.6506
      vertex 0 127.429 10.6506
    endloop
  endfacet
  facet normal 0 0.633793 -0.773503
    outer loop
      vertex 0 127.798 11.2021
      vertex 1.68 128.056 11.4135
      vertex 1.68 127.798 11.2021
    endloop
  endfacet
  facet normal 0 0.633793 -0.773503
    outer loop
      vertex 1.68 128.056 11.4135
      vertex 0 127.798 11.2021
      vertex 0 128.056 11.4135
    endloop
  endfacet
  facet normal 0 0.773621 0.633648
    outer loop
      vertex 1.68 127.798 8.79792
      vertex 0 127.587 9.05553
      vertex 1.68 127.587 9.05553
    endloop
  endfacet
  facet normal 0 0.773621 0.633648
    outer loop
      vertex 0 127.587 9.05553
      vertex 1.68 127.798 8.79792
      vertex 0 127.798 8.79792
    endloop
  endfacet
  facet normal 0 -0.290209 0.956963
    outer loop
      vertex 0 129.651 8.42941
      vertex 1.68 129.332 8.33267
      vertex 1.68 129.651 8.42941
    endloop
  endfacet
  facet normal 0 -0.290209 0.956963
    outer loop
      vertex 1.68 129.332 8.33267
      vertex 0 129.651 8.42941
      vertex 0 129.332 8.33267
    endloop
  endfacet
  facet normal 0 -0.995086 0.0990135
    outer loop
      vertex 0 130.667 9.66835
      vertex 1.68 130.7 10
      vertex 0 130.7 10
    endloop
  endfacet
  facet normal 0 -0.995086 0.0990135
    outer loop
      vertex 1.68 130.7 10
      vertex 0 130.667 9.66835
      vertex 1.68 130.667 9.66835
    endloop
  endfacet
  facet normal -0 0.472515 0.881323
    outer loop
      vertex 0 128.349 8.42941
      vertex 1.68 128.056 8.5865
      vertex 1.68 128.349 8.42941
    endloop
  endfacet
  facet normal 0 0.472515 0.881323
    outer loop
      vertex 1.68 128.056 8.5865
      vertex 0 128.349 8.42941
      vertex 0 128.056 8.5865
    endloop
  endfacet
  facet normal 0 0.290099 -0.956997
    outer loop
      vertex 0 128.349 11.5706
      vertex 1.68 128.668 11.6673
      vertex 1.68 128.349 11.5706
    endloop
  endfacet
  facet normal 0 0.290099 -0.956997
    outer loop
      vertex 1.68 128.668 11.6673
      vertex 0 128.349 11.5706
      vertex 0 128.668 11.6673
    endloop
  endfacet
  facet normal 0 0.773609 -0.633663
    outer loop
      vertex 1.68 127.587 10.9445
      vertex 0 127.798 11.2021
      vertex 1.68 127.798 11.2021
    endloop
  endfacet
  facet normal 0 0.773609 -0.633663
    outer loop
      vertex 0 127.798 11.2021
      vertex 1.68 127.587 10.9445
      vertex 0 127.587 10.9445
    endloop
  endfacet
  facet normal 0 0.957556 0.288249
    outer loop
      vertex 1.68 127.429 9.34944
      vertex 0 127.333 9.66835
      vertex 1.68 127.333 9.66835
    endloop
  endfacet
  facet normal 0 0.957556 0.288249
    outer loop
      vertex 0 127.333 9.66835
      vertex 1.68 127.429 9.34944
      vertex 0 127.429 9.34944
    endloop
  endfacet
  facet normal 0 0.880795 0.473497
    outer loop
      vertex 1.68 127.587 9.05553
      vertex 0 127.429 9.34944
      vertex 1.68 127.429 9.34944
    endloop
  endfacet
  facet normal 0 0.880795 0.473497
    outer loop
      vertex 0 127.429 9.34944
      vertex 1.68 127.587 9.05553
      vertex 0 127.587 9.05553
    endloop
  endfacet
  facet normal -0 0.290209 0.956963
    outer loop
      vertex 0 128.668 8.33267
      vertex 1.68 128.349 8.42941
      vertex 1.68 128.668 8.33267
    endloop
  endfacet
  facet normal 0 0.290209 0.956963
    outer loop
      vertex 1.68 128.349 8.42941
      vertex 0 128.668 8.33267
      vertex 0 128.349 8.42941
    endloop
  endfacet
  facet normal 0 0.957553 -0.288257
    outer loop
      vertex 1.68 127.333 10.3317
      vertex 0 127.429 10.6506
      vertex 1.68 127.429 10.6506
    endloop
  endfacet
  facet normal 0 0.957553 -0.288257
    outer loop
      vertex 0 127.429 10.6506
      vertex 1.68 127.333 10.3317
      vertex 0 127.333 10.3317
    endloop
  endfacet
  facet normal 0 0.995086 0.0990135
    outer loop
      vertex 1.68 127.333 9.66835
      vertex 0 127.3 10
      vertex 1.68 127.3 10
    endloop
  endfacet
  facet normal 0 0.995086 0.0990135
    outer loop
      vertex 0 127.3 10
      vertex 1.68 127.333 9.66835
      vertex 0 127.333 9.66835
    endloop
  endfacet
  facet normal 0 0.472539 -0.88131
    outer loop
      vertex 0 128.056 11.4135
      vertex 1.68 128.349 11.5706
      vertex 1.68 128.056 11.4135
    endloop
  endfacet
  facet normal 0 0.472539 -0.88131
    outer loop
      vertex 1.68 128.349 11.5706
      vertex 0 128.056 11.4135
      vertex 0 128.349 11.5706
    endloop
  endfacet
  facet normal -0 0.633829 0.773474
    outer loop
      vertex 0 128.056 8.5865
      vertex 1.68 127.798 8.79792
      vertex 1.68 128.056 8.5865
    endloop
  endfacet
  facet normal 0 0.633829 0.773474
    outer loop
      vertex 1.68 127.798 8.79792
      vertex 0 128.056 8.5865
      vertex 0 127.798 8.79792
    endloop
  endfacet
  facet normal 0 0.995088 -0.0989988
    outer loop
      vertex 1.68 127.3 10
      vertex 0 127.333 10.3317
      vertex 1.68 127.333 10.3317
    endloop
  endfacet
  facet normal 0 0.995088 -0.0989988
    outer loop
      vertex 0 127.333 10.3317
      vertex 1.68 127.3 10
      vertex 0 127.3 10
    endloop
  endfacet
  facet normal 0 -0.471378 0.881931
    outer loop
      vertex 0 7.94447 8.5865
      vertex 1.68 7.65056 8.42941
      vertex 1.68 7.94447 8.5865
    endloop
  endfacet
  facet normal 0 -0.471378 0.881931
    outer loop
      vertex 1.68 7.65056 8.42941
      vertex 0 7.94447 8.5865
      vertex 0 7.65056 8.42941
    endloop
  endfacet
  facet normal 0 -0.634402 0.773003
    outer loop
      vertex 0 8.20208 8.79792
      vertex 1.68 7.94447 8.5865
      vertex 1.68 8.20208 8.79792
    endloop
  endfacet
  facet normal 0 -0.634402 0.773003
    outer loop
      vertex 1.68 7.94447 8.5865
      vertex 0 8.20208 8.79792
      vertex 0 7.94447 8.5865
    endloop
  endfacet
  facet normal 0 -0.995183 0.098033
    outer loop
      vertex 0 8.66733 9.66835
      vertex 1.68 8.7 10
      vertex 0 8.7 10
    endloop
  endfacet
  facet normal 0 -0.995183 0.098033
    outer loop
      vertex 1.68 8.7 10
      vertex 0 8.66733 9.66835
      vertex 1.68 8.66733 9.66835
    endloop
  endfacet
  facet normal 0 -0.956941 0.290284
    outer loop
      vertex 0 8.57059 9.34944
      vertex 1.68 8.66733 9.66835
      vertex 0 8.66733 9.66835
    endloop
  endfacet
  facet normal 0 -0.956941 0.290284
    outer loop
      vertex 1.68 8.66733 9.66835
      vertex 0 8.57059 9.34944
      vertex 1.68 8.57059 9.34944
    endloop
  endfacet
  facet normal 0 -0.881925 -0.47139
    outer loop
      vertex 0 8.57059 10.6506
      vertex 1.68 8.4135 10.9445
      vertex 0 8.4135 10.9445
    endloop
  endfacet
  facet normal 0 -0.881925 -0.47139
    outer loop
      vertex 1.68 8.4135 10.9445
      vertex 0 8.57059 10.6506
      vertex 1.68 8.57059 10.6506
    endloop
  endfacet
  facet normal 0 -0.290174 -0.956974
    outer loop
      vertex 0 7.33165 11.6673
      vertex 1.68 7.65056 11.5706
      vertex 1.68 7.33165 11.6673
    endloop
  endfacet
  facet normal -0 -0.290174 -0.956974
    outer loop
      vertex 1.68 7.65056 11.5706
      vertex 0 7.33165 11.6673
      vertex 0 7.65056 11.5706
    endloop
  endfacet
  facet normal -0 0.098033 0.995183
    outer loop
      vertex 0 7 8.3
      vertex 1.68 6.66835 8.33267
      vertex 1.68 7 8.3
    endloop
  endfacet
  facet normal 0 0.098033 0.995183
    outer loop
      vertex 1.68 6.66835 8.33267
      vertex 0 7 8.3
      vertex 0 6.66835 8.33267
    endloop
  endfacet
  facet normal 0 -0.290284 0.956941
    outer loop
      vertex 0 7.65056 8.42941
      vertex 1.68 7.33165 8.33267
      vertex 1.68 7.65056 8.42941
    endloop
  endfacet
  facet normal 0 -0.290284 0.956941
    outer loop
      vertex 1.68 7.33165 8.33267
      vertex 0 7.65056 8.42941
      vertex 0 7.33165 8.33267
    endloop
  endfacet
  facet normal 0 -0.773003 0.634402
    outer loop
      vertex 0 8.20208 8.79792
      vertex 1.68 8.4135 9.05553
      vertex 0 8.4135 9.05553
    endloop
  endfacet
  facet normal 0 -0.773003 0.634402
    outer loop
      vertex 1.68 8.4135 9.05553
      vertex 0 8.20208 8.79792
      vertex 1.68 8.20208 8.79792
    endloop
  endfacet
  facet normal 0 -0.995185 -0.0980183
    outer loop
      vertex 0 8.7 10
      vertex 1.68 8.66733 10.3317
      vertex 0 8.66733 10.3317
    endloop
  endfacet
  facet normal 0 -0.995185 -0.0980183
    outer loop
      vertex 1.68 8.66733 10.3317
      vertex 0 8.7 10
      vertex 1.68 8.7 10
    endloop
  endfacet
  facet normal 0 -0.881931 0.471378
    outer loop
      vertex 0 8.4135 9.05553
      vertex 1.68 8.57059 9.34944
      vertex 0 8.57059 9.34944
    endloop
  endfacet
  facet normal 0 -0.881931 0.471378
    outer loop
      vertex 1.68 8.57059 9.34944
      vertex 0 8.4135 9.05553
      vertex 1.68 8.4135 9.05553
    endloop
  endfacet
  facet normal 0 0.0981221 -0.995174
    outer loop
      vertex 0 6.66835 11.6673
      vertex 1.68 7 11.7
      vertex 1.68 6.66835 11.6673
    endloop
  endfacet
  facet normal 0 0.0981221 -0.995174
    outer loop
      vertex 1.68 7 11.7
      vertex 0 6.66835 11.6673
      vertex 0 7 11.7
    endloop
  endfacet
  facet normal 0 -0.471401 -0.881919
    outer loop
      vertex 0 7.65056 11.5706
      vertex 1.68 7.94447 11.4135
      vertex 1.68 7.65056 11.5706
    endloop
  endfacet
  facet normal -0 -0.471401 -0.881919
    outer loop
      vertex 1.68 7.94447 11.4135
      vertex 0 7.65056 11.5706
      vertex 0 7.94447 11.4135
    endloop
  endfacet
  facet normal 0 -0.772991 -0.634417
    outer loop
      vertex 0 8.4135 10.9445
      vertex 1.68 8.20208 11.2021
      vertex 0 8.20208 11.2021
    endloop
  endfacet
  facet normal 0 -0.772991 -0.634417
    outer loop
      vertex 1.68 8.20208 11.2021
      vertex 0 8.4135 10.9445
      vertex 1.68 8.4135 10.9445
    endloop
  endfacet
  facet normal 0 -0.956938 -0.290292
    outer loop
      vertex 0 8.66733 10.3317
      vertex 1.68 8.57059 10.6506
      vertex 0 8.57059 10.6506
    endloop
  endfacet
  facet normal 0 -0.956938 -0.290292
    outer loop
      vertex 1.68 8.57059 10.6506
      vertex 0 8.66733 10.3317
      vertex 1.68 8.66733 10.3317
    endloop
  endfacet
  facet normal 0 -0.634366 -0.773033
    outer loop
      vertex 0 7.94447 11.4135
      vertex 1.68 8.20208 11.2021
      vertex 1.68 7.94447 11.4135
    endloop
  endfacet
  facet normal -0 -0.634366 -0.773033
    outer loop
      vertex 1.68 8.20208 11.2021
      vertex 0 7.94447 11.4135
      vertex 0 8.20208 11.2021
    endloop
  endfacet
  facet normal 0 -0.098033 0.995183
    outer loop
      vertex 0 7.33165 8.33267
      vertex 1.68 7 8.3
      vertex 1.68 7.33165 8.33267
    endloop
  endfacet
  facet normal 0 -0.098033 0.995183
    outer loop
      vertex 1.68 7 8.3
      vertex 0 7.33165 8.33267
      vertex 0 7 8.3
    endloop
  endfacet
  facet normal 0 0.773003 0.634402
    outer loop
      vertex 1.68 5.79792 8.79792
      vertex 0 5.5865 9.05553
      vertex 1.68 5.5865 9.05553
    endloop
  endfacet
  facet normal 0 0.773003 0.634402
    outer loop
      vertex 0 5.5865 9.05553
      vertex 1.68 5.79792 8.79792
      vertex 0 5.79792 8.79792
    endloop
  endfacet
  facet normal -0 0.471378 0.881931
    outer loop
      vertex 0 6.34944 8.42941
      vertex 1.68 6.05553 8.5865
      vertex 1.68 6.34944 8.42941
    endloop
  endfacet
  facet normal 0 0.471378 0.881931
    outer loop
      vertex 1.68 6.05553 8.5865
      vertex 0 6.34944 8.42941
      vertex 0 6.05553 8.5865
    endloop
  endfacet
  facet normal 0 0.995188 -0.0979886
    outer loop
      vertex 1.68 5.3 10
      vertex 0 5.33266 10.3317
      vertex 1.68 5.33266 10.3317
    endloop
  endfacet
  facet normal 0 0.995188 -0.0979886
    outer loop
      vertex 0 5.33266 10.3317
      vertex 1.68 5.3 10
      vertex 0 5.3 10
    endloop
  endfacet
  facet normal 0 -0.0981221 -0.995174
    outer loop
      vertex 0 7 11.7
      vertex 1.68 7.33165 11.6673
      vertex 1.68 7 11.7
    endloop
  endfacet
  facet normal -0 -0.0981221 -0.995174
    outer loop
      vertex 1.68 7.33165 11.6673
      vertex 0 7 11.7
      vertex 0 7.33165 11.6673
    endloop
  endfacet
  facet normal 0 0.290174 -0.956974
    outer loop
      vertex 0 6.34944 11.5706
      vertex 1.68 6.66835 11.6673
      vertex 1.68 6.34944 11.5706
    endloop
  endfacet
  facet normal 0 0.290174 -0.956974
    outer loop
      vertex 1.68 6.66835 11.6673
      vertex 0 6.34944 11.5706
      vertex 0 6.66835 11.6673
    endloop
  endfacet
  facet normal 0 0.634366 -0.773033
    outer loop
      vertex 0 5.79792 11.2021
      vertex 1.68 6.05553 11.4135
      vertex 1.68 5.79792 11.2021
    endloop
  endfacet
  facet normal 0 0.634366 -0.773033
    outer loop
      vertex 1.68 6.05553 11.4135
      vertex 0 5.79792 11.2021
      vertex 0 6.05553 11.4135
    endloop
  endfacet
  facet normal 0 0.956941 0.290284
    outer loop
      vertex 1.68 5.4294 9.34944
      vertex 0 5.33266 9.66835
      vertex 1.68 5.33266 9.66835
    endloop
  endfacet
  facet normal 0 0.956941 0.290284
    outer loop
      vertex 0 5.33266 9.66835
      vertex 1.68 5.4294 9.34944
      vertex 0 5.4294 9.34944
    endloop
  endfacet
  facet normal 0 0.881919 0.471401
    outer loop
      vertex 1.68 5.5865 9.05553
      vertex 0 5.4294 9.34944
      vertex 1.68 5.4294 9.34944
    endloop
  endfacet
  facet normal 0 0.881919 0.471401
    outer loop
      vertex 0 5.4294 9.34944
      vertex 1.68 5.5865 9.05553
      vertex 0 5.5865 9.05553
    endloop
  endfacet
  facet normal -0 0.290284 0.956941
    outer loop
      vertex 0 6.66835 8.33267
      vertex 1.68 6.34944 8.42941
      vertex 1.68 6.66835 8.33267
    endloop
  endfacet
  facet normal 0 0.290284 0.956941
    outer loop
      vertex 1.68 6.34944 8.42941
      vertex 0 6.66835 8.33267
      vertex 0 6.34944 8.42941
    endloop
  endfacet
  facet normal 0 0.881912 -0.471413
    outer loop
      vertex 1.68 5.4294 10.6506
      vertex 0 5.5865 10.9445
      vertex 1.68 5.5865 10.9445
    endloop
  endfacet
  facet normal 0 0.881912 -0.471413
    outer loop
      vertex 0 5.5865 10.9445
      vertex 1.68 5.4294 10.6506
      vertex 0 5.4294 10.6506
    endloop
  endfacet
  facet normal 0 0.995186 0.0980032
    outer loop
      vertex 1.68 5.33266 9.66835
      vertex 0 5.3 10
      vertex 1.68 5.3 10
    endloop
  endfacet
  facet normal 0 0.995186 0.0980032
    outer loop
      vertex 0 5.3 10
      vertex 1.68 5.33266 9.66835
      vertex 0 5.33266 9.66835
    endloop
  endfacet
  facet normal 0 0.471401 -0.881919
    outer loop
      vertex 0 6.05553 11.4135
      vertex 1.68 6.34944 11.5706
      vertex 1.68 6.05553 11.4135
    endloop
  endfacet
  facet normal 0 0.471401 -0.881919
    outer loop
      vertex 1.68 6.34944 11.5706
      vertex 0 6.05553 11.4135
      vertex 0 6.34944 11.5706
    endloop
  endfacet
  facet normal 0 0.772991 -0.634417
    outer loop
      vertex 1.68 5.5865 10.9445
      vertex 0 5.79792 11.2021
      vertex 1.68 5.79792 11.2021
    endloop
  endfacet
  facet normal 0 0.772991 -0.634417
    outer loop
      vertex 0 5.79792 11.2021
      vertex 1.68 5.5865 10.9445
      vertex 0 5.5865 10.9445
    endloop
  endfacet
  facet normal -0 0.634402 0.773003
    outer loop
      vertex 0 6.05553 8.5865
      vertex 1.68 5.79792 8.79792
      vertex 1.68 6.05553 8.5865
    endloop
  endfacet
  facet normal 0 0.634402 0.773003
    outer loop
      vertex 1.68 5.79792 8.79792
      vertex 0 6.05553 8.5865
      vertex 0 5.79792 8.79792
    endloop
  endfacet
  facet normal 0 0.956938 -0.290292
    outer loop
      vertex 1.68 5.33266 10.3317
      vertex 0 5.4294 10.6506
      vertex 1.68 5.4294 10.6506
    endloop
  endfacet
  facet normal 0 0.956938 -0.290292
    outer loop
      vertex 0 5.4294 10.6506
      vertex 1.68 5.33266 10.3317
      vertex 0 5.33266 10.3317
    endloop
  endfacet
endsolid OpenSCAD_Model
