<?xml version="1.0" standalone="no"?>
<!DOCTYPE svg PUBLIC "-//W3C//DTD SVG 20010904//EN"
 "http://www.w3.org/TR/2001/REC-SVG-20010904/DTD/svg10.dtd">
<svg version="1.0"
   xmlns="http://www.w3.org/2000/svg"
 width="239.000000mm" height="128.000000mm" viewBox="0 0 239.000000 128.000000"
 preserveAspectRatio="xMidYMid meet">
   <g transform="translate(0.000000,128.000000) scale(0.100000,-0.100000)"
fill="#000000" stroke="none">
      <path d="M1130 1269 c-142 -7 -337 -26 -555 -54 -258 -34 -347 -66 -396 -143
-29 -45 -29 -48 -29 -188 0 -162 21 -289 71 -438 65 -190 137 -294 241 -347
20 -10 93 -30 161 -44 336 -68 1157 -28 1392 68 130 53 150 86 219 362 55 222
71 341 79 587 2 72 0 79 -25 104 -25 25 -36 28 -180 40 -84 8 -209 21 -278 29
-127 14 -428 33 -510 31 -25 0 -110 -4 -190 -7z"/>
   </g>
</svg>
