<?xml version="1.0" standalone="no"?>
<!DOCTYPE svg PUBLIC "-//W3C//DTD SVG 20010904//EN"
 "http://www.w3.org/TR/2001/REC-SVG-20010904/DTD/svg10.dtd">
<svg version="1.0"
   xmlns="http://www.w3.org/2000/svg"
 width="478.000000mm" height="128.000000mm" viewBox="0 0 478.000000 128.000000"
 preserveAspectRatio="xMidYMid meet">
   <g transform="translate(0.000000,128.000000) scale(0.100000,-0.100000)"
fill="#000000" stroke="none">
      <path d="M912 1273 c-4 -1 -70 -7 -147 -12 -77 -6 -203 -17 -280 -25 -77 -8
-189 -19 -249 -25 -98 -9 -111 -12 -137 -37 -26 -25 -29 -34 -29 -95 0 -101
29 -426 44 -496 15 -65 13 -73 -14 -73 -37 0 -40 -22 -15 -116 37 -135 37
-135 85 -128 24 4 40 3 40 -3 0 -25 84 -102 137 -128 268 -127 1336 -151 1564
-35 134 69 230 240 294 527 41 186 85 243 185 243 100 0 144 -57 185 -243 64
-287 160 -458 294 -527 228 -116 1296 -92 1564 35 53 26 137 103 137 128 0 6
16 7 40 3 48 -7 48 -7 85 128 25 94 22 116 -15 116 -27 0 -29 8 -14 73 15 70
44 395 44 496 0 61 -3 70 -29 95 -26 25 -39 28 -137 37 -60 6 -172 17 -249 25
-300 32 -438 35 -1893 37 -815 1 -1485 1 -1490 0z"/>
   </g>
</svg>
